<svg xmlns="http://www.w3.org/2000/svg" viewBox="0 0 400 300" width="406" height="306" class="illustration styles_illustrationTablet__1DWOa"><g id="_522_linkedin_outline" data-name="#522_linkedin_outline"><rect x="136.35" y="57.29" width="127.31" height="191" fill="#fff"></rect><path d="M263.65,249.28H136.35a1,1,0,0,1-1-1v-191a1,1,0,0,1,1-1h127.3a1,1,0,0,1,1,1v191A1,1,0,0,1,263.65,249.28Zm-126.3-2h125.3v-189H137.35Z" fill="#093f68"></path><rect x="136.35" y="72.34" width="127.31" height="41.96" fill="#68e1fd"></rect><path d="M263.65,115.31H136.35a1,1,0,0,1-1-1v-42a1,1,0,0,1,1-1h127.3a1,1,0,0,1,1,1v42A1,1,0,0,1,263.65,115.31Zm-126.3-2h125.3v-40H137.35Z" fill="#093f68"></path><path d="M234.92,116.31a34.91,34.91,0,0,1-20,31.58,33.26,33.26,0,0,1-6.48,2.31,34.85,34.85,0,0,1-16.78,0,34,34,0,0,1-6.49-2.29,34.93,34.93,0,1,1,49.74-31.63Z" fill="#68e1fd"></path><path d="M200,152.24a36.2,36.2,0,0,1-15.25-3.39,35.93,35.93,0,1,1,30.61-.06,34.18,34.18,0,0,1-6.67,2.38A35.48,35.48,0,0,1,200,152.24Zm0-69.86A33.94,33.94,0,0,0,185.6,147a33.19,33.19,0,0,0,6.3,2.22,34.21,34.21,0,0,0,16.31,0A32.91,32.91,0,0,0,214.5,147,33.94,33.94,0,0,0,200,82.38Z" fill="#093f68"></path><path d="M214.93,141.89v6a33.26,33.26,0,0,1-6.48,2.31,34.85,34.85,0,0,1-16.78,0,34,34,0,0,1-6.49-2.29v-6.05a10.06,10.06,0,0,1,10.07-10.06h9.62A10.05,10.05,0,0,1,214.93,141.89Z" fill="#f56132"></path><path d="M200,152.24a36.2,36.2,0,0,1-15.25-3.39,1,1,0,0,1-.57-.91v-6.05a11.08,11.08,0,0,1,11.07-11.06h9.62a11.07,11.07,0,0,1,11.06,11.06v6a1,1,0,0,1-.57.9,34.18,34.18,0,0,1-6.67,2.38A35.48,35.48,0,0,1,200,152.24Zm-13.82-4.94a33.93,33.93,0,0,0,22,1.93,32.79,32.79,0,0,0,5.72-2v-5.36a9.07,9.07,0,0,0-9.06-9.06h-9.62a9.07,9.07,0,0,0-9.07,9.06Zm28.75.59h0Z" fill="#093f68"></path><polygon points="197.66 132.81 200.4 145.9 202.72 132.81 197.66 132.81" fill="#093f68"></polygon><path d="M200.4,146.9a1,1,0,0,1-1-.8L196.68,133a1,1,0,0,1,1-1.21h5.06a1,1,0,0,1,.77.36,1,1,0,0,1,.21.82l-2.32,13.08a1,1,0,0,1-1,.83Zm-1.51-13.09,1.43,6.82,1.21-6.82Z" fill="#093f68"></path><path d="M198.79,90.82a11.82,11.82,0,0,1,1.88-.15c2.91,0,5.88-.07,8.54,1.23a16.13,16.13,0,0,1,9,14.37s-.62,11.92-.62,11.92H182.71a7.23,7.23,0,0,1,.15-2.22,9.57,9.57,0,0,0-.35-2.31,32.55,32.55,0,0,1-.7-5.9,23.11,23.11,0,0,1,1.91-9.09,10,10,0,0,1,3.07-4.58c1.52-1.08,3.93-1.11,5,.4A12.12,12.12,0,0,1,198.79,90.82Z" fill="#725858"></path><path d="M217.57,119.19H182.71a1,1,0,0,1-1-.72,4.36,4.36,0,0,1,0-1.91,5.17,5.17,0,0,0,.09-.64,6,6,0,0,0-.22-1.54c0-.17-.07-.34-.11-.52a33.15,33.15,0,0,1-.72-6.09,23.89,23.89,0,0,1,2-9.48,10.91,10.91,0,0,1,3.41-5,5,5,0,0,1,5.6-.18,13.15,13.15,0,0,1,6.83-3.26h0a17.69,17.69,0,0,1,2-.16h.51c2.83,0,5.75,0,8.46,1.33a17.12,17.12,0,0,1,9.54,15.27s0,0-.62,12A1,1,0,0,1,217.57,119.19Zm-33.88-2h32.93c.15-2.8.56-10.85.57-11a15.07,15.07,0,0,0-8.42-13.43c-2.29-1.12-4.86-1.12-7.58-1.13h-.52a11.28,11.28,0,0,0-1.72.14h0a11.07,11.07,0,0,0-6.41,3.36,1,1,0,0,1-.8.32,1,1,0,0,1-.75-.41c-.74-1-2.53-1-3.62-.18a9.07,9.07,0,0,0-2.72,4.15,22,22,0,0,0-1.84,8.69,32,32,0,0,0,.68,5.73l.11.48a7.9,7.9,0,0,1,.26,2.06c0,.28-.07.58-.12.89A2.93,2.93,0,0,1,183.69,117.19Z" fill="#093f68"></path><path d="M197.66,129.9h5.06a0,0,0,0,1,0,0v2.91a2.15,2.15,0,0,1-2.15,2.15h-.76a2.15,2.15,0,0,1-2.15-2.15V129.9A0,0,0,0,1,197.66,129.9Z" fill="#ffc9b0"></path><path d="M200.57,136h-.76a3.15,3.15,0,0,1-3.15-3.15V129.9a1,1,0,0,1,1-1h5.06a1,1,0,0,1,1,1v2.91A3.15,3.15,0,0,1,200.57,136Zm-1.91-5.06v1.91a1.14,1.14,0,0,0,1.15,1.15h.76a1.15,1.15,0,0,0,1.15-1.15V130.9Z" fill="#093f68"></path><ellipse cx="186.56" cy="116.75" rx="4.63" ry="4.24" fill="#ffc9b0"></ellipse><path d="M186.56,122a5.25,5.25,0,1,1,5.63-5.24A5.45,5.45,0,0,1,186.56,122Zm0-8.47a3.26,3.26,0,1,0,3.63,3.23A3.45,3.45,0,0,0,186.56,113.52Z" fill="#093f68"></path><ellipse cx="213.55" cy="116.75" rx="4.63" ry="4.24" fill="#ffc9b0"></ellipse><path d="M213.55,122a5.25,5.25,0,1,1,5.64-5.24A5.45,5.45,0,0,1,213.55,122Zm0-8.47a3.26,3.26,0,1,0,3.64,3.23A3.45,3.45,0,0,0,213.55,113.52Z" fill="#093f68"></path><path d="M200.19,130.56h0a14.83,14.83,0,0,1-14.83-14.83v-8s3.73-2.13,4.84-5.49c0,0,5.7,6.48,11.19,6A125.23,125.23,0,0,0,215,106.4v9.33A14.83,14.83,0,0,1,200.19,130.56Z" fill="#ffc9b0"></path><path d="M200.19,131.56a15.85,15.85,0,0,1-15.83-15.83v-8a1,1,0,0,1,.5-.87s3.42-2,4.39-4.93a1,1,0,0,1,1.7-.35c.05.06,5.45,6.12,10.36,5.71a126.14,126.14,0,0,0,13.51-1.89,1,1,0,0,1,.83.21,1,1,0,0,1,.37.77v9.33A15.85,15.85,0,0,1,200.19,131.56ZM186.36,108.3v7.43a13.83,13.83,0,0,0,27.66,0v-8.12c-2.22.41-7.24,1.27-12.55,1.69-4.51.35-9-3.36-11-5.28A13.51,13.51,0,0,1,186.36,108.3Z" fill="#093f68"></path><path d="M200.11,119.19a8.59,8.59,0,0,1-1.43-.12,1,1,0,0,1-.81-1.16,1,1,0,0,1,1.16-.81,6.84,6.84,0,0,0,1.3.09,14.1,14.1,0,0,0-1-2.49,1,1,0,0,1,1.78-.92c1.14,2.2,1.54,3.72,1.17,4.53a1.32,1.32,0,0,1-.88.75A5.34,5.34,0,0,1,200.11,119.19Z" fill="#093f68"></path><path d="M191.67,151.23a1,1,0,0,1-1-1v-7.49a1,1,0,0,1,2,0v7.49A1,1,0,0,1,191.67,151.23Z" fill="#093f68"></path><path d="M208.45,151.2a1,1,0,0,1-1-1v-7.46a1,1,0,0,1,2,0v7.46A1,1,0,0,1,208.45,151.2Z" fill="#093f68"></path><rect x="136.35" y="51.72" width="127.31" height="20.63" fill="#fff"></rect><path d="M263.65,73.34H136.35a1,1,0,0,1-1-1V51.72a1,1,0,0,1,1-1h127.3a1,1,0,0,1,1,1V72.34A1,1,0,0,1,263.65,73.34Zm-126.3-2h125.3V52.72H137.35Z" fill="#093f68"></path><path d="M151.84,62.9h-7.65a1,1,0,0,1,0-2h7.65a1,1,0,0,1,0,2Z" fill="#093f68"></path><path d="M146.88,66.63a1,1,0,0,1-.7-.29l-3.79-3.73a1,1,0,0,1-.3-.73,1,1,0,0,1,.32-.72l3.79-3.46a1,1,0,1,1,1.35,1.47l-3,2.76,3,3a1,1,0,0,1,0,1.42A1,1,0,0,1,146.88,66.63Z" fill="#093f68"></path><path d="M209.17,68h-2.49V63.67a1.25,1.25,0,0,0-2.48-.25c0,.11,0,.22,0,.33V68H201.7V60.51h2.49v.91a8,8,0,0,1,.69-.62,2.58,2.58,0,0,1,3.25.23,2.85,2.85,0,0,1,1.05,2.22v4.62S209.17,67.93,209.17,68Z" fill="#093f68"></path><path d="M197.53,60.5H200V68h-2.47Z" fill="#093f68"></path><path d="M200.26,57.58a1.48,1.48,0,0,1-1.5,1.49,1.5,1.5,0,1,1,1.5-1.49Z" fill="#093f68"></path><circle cx="256.49" cy="57.25" r="1.34" fill="#093f68"></circle><circle cx="256.49" cy="62.03" r="1.34" fill="#093f68"></circle><circle cx="256.49" cy="66.81" r="1.34" fill="#093f68"></circle><rect x="167.56" y="191.57" width="64.87" height="20.07" rx="0.3" fill="#68e1fd"></rect><path d="M232.14,212.64H167.86a1.3,1.3,0,0,1-1.3-1.3V191.87a1.3,1.3,0,0,1,1.3-1.3h64.28a1.3,1.3,0,0,1,1.3,1.3v19.47A1.3,1.3,0,0,1,232.14,212.64Zm-63.58-2h62.88V192.57H168.56Z" fill="#093f68"></path><path d="M164.59,239.32a8.44,8.44,0,1,1,8.43-8.44A8.44,8.44,0,0,1,164.59,239.32Zm0-14.87a6.44,6.44,0,1,0,6.43,6.43A6.45,6.45,0,0,0,164.59,224.45Z" fill="#dfeaef"></path><path d="M188.2,239.32a8.44,8.44,0,1,1,8.43-8.44A8.44,8.44,0,0,1,188.2,239.32Zm0-14.87a6.44,6.44,0,1,0,6.43,6.43A6.45,6.45,0,0,0,188.2,224.45Z" fill="#dfeaef"></path><path d="M211.8,239.32a8.44,8.44,0,1,1,8.44-8.44A8.44,8.44,0,0,1,211.8,239.32Zm0-14.87a6.44,6.44,0,1,0,6.44,6.43A6.44,6.44,0,0,0,211.8,224.45Z" fill="#dfeaef"></path><path d="M235.41,239.32a8.44,8.44,0,1,1,8.44-8.44A8.44,8.44,0,0,1,235.41,239.32Zm0-14.87a6.44,6.44,0,1,0,6.44,6.43A6.44,6.44,0,0,0,235.41,224.45Z" fill="#dfeaef"></path><path d="M188,200.58a1,1,0,0,0-.34-.26,1.26,1.26,0,0,0-1,0,1.24,1.24,0,0,0-.39.29,1.28,1.28,0,0,0-.26.44,1.58,1.58,0,0,0-.1.55,1.63,1.63,0,0,0,.1.55,1.52,1.52,0,0,0,.25.43,1.24,1.24,0,0,0,.39.29,1.07,1.07,0,0,0,.47.1,1,1,0,0,0,.51-.12.93.93,0,0,0,.37-.34l.79.59a1.64,1.64,0,0,1-.69.56,2.14,2.14,0,0,1-.86.18,2.51,2.51,0,0,1-.92-.16,2,2,0,0,1-.73-.45,1.86,1.86,0,0,1-.48-.71,2.6,2.6,0,0,1,0-1.85,1.86,1.86,0,0,1,.48-.71,2,2,0,0,1,.73-.45,2.51,2.51,0,0,1,.92-.16l.38,0a2.85,2.85,0,0,1,.39.11,2.09,2.09,0,0,1,.36.19,1.26,1.26,0,0,1,.31.3Z" fill="#fff"></path><path d="M189.06,201.61a2.45,2.45,0,0,1,.17-.93,2.12,2.12,0,0,1,.48-.71,2,2,0,0,1,.73-.45,2.75,2.75,0,0,1,1.85,0,2,2,0,0,1,.73.45,1.86,1.86,0,0,1,.48.71,2.6,2.6,0,0,1,0,1.85,1.86,1.86,0,0,1-.48.71,2,2,0,0,1-.73.45,2.75,2.75,0,0,1-1.85,0,2,2,0,0,1-.73-.45,2.12,2.12,0,0,1-.48-.71A2.43,2.43,0,0,1,189.06,201.61Zm1,0a1.63,1.63,0,0,0,.09.55,1.21,1.21,0,0,0,.27.43,1.27,1.27,0,0,0,1,.39,1.33,1.33,0,0,0,.54-.1,1.17,1.17,0,0,0,.42-.29,1.21,1.21,0,0,0,.27-.43,1.63,1.63,0,0,0,.09-.55,1.59,1.59,0,0,0-.09-.55,1.24,1.24,0,0,0-.69-.73,1.33,1.33,0,0,0-.54-.1,1.27,1.27,0,0,0-1,.39,1.16,1.16,0,0,0-.27.44A1.59,1.59,0,0,0,190,201.61Z" fill="#fff"></path><path d="M194.31,199.47h1.28l1.82,3h0v-3h.94v4.27h-1.23l-1.86-3h0v3h-.94Z" fill="#fff"></path><path d="M199.23,199.47h1.28l1.82,3h0v-3h.94v4.27h-1.23l-1.87-3h0v3h-.94Z" fill="#fff"></path><path d="M204.19,199.47h2.9v.87h-2v.79H207V202h-1.85v.87h2.07v.87h-3Z" fill="#fff"></path><path d="M210.75,200.58a1,1,0,0,0-.35-.26,1.11,1.11,0,0,0-.46-.09,1.21,1.21,0,0,0-.5.1,1.24,1.24,0,0,0-.39.29,1.46,1.46,0,0,0-.26.44,1.59,1.59,0,0,0-.09.55,1.63,1.63,0,0,0,.09.55,1.54,1.54,0,0,0,.26.43,1.33,1.33,0,0,0,.38.29,1.12,1.12,0,0,0,.48.1,1.07,1.07,0,0,0,.51-.12,1,1,0,0,0,.37-.34l.78.59a1.64,1.64,0,0,1-.69.56,2.09,2.09,0,0,1-.85.18,2.56,2.56,0,0,1-.93-.16,2,2,0,0,1-.73-.45,2.12,2.12,0,0,1-.48-.71,2.6,2.6,0,0,1,0-1.85,2.12,2.12,0,0,1,.48-.71,2,2,0,0,1,.73-.45,2.56,2.56,0,0,1,.93-.16l.37,0a2.5,2.5,0,0,1,.39.11,1.85,1.85,0,0,1,.37.19,1.46,1.46,0,0,1,.31.3Z" fill="#fff"></path><path d="M212.91,200.3h-1.22v-.83h3.38v.83h-1.22v3.44h-.94Z" fill="#fff"></path><path d="M226.55,161.79h-53.1a1,1,0,0,1,0-2h53.1a1,1,0,0,1,0,2Z" fill="#093f68"></path><path d="M238.05,171.81H162a1,1,0,0,1,0-2h76.1a1,1,0,0,1,0,2Z" fill="#093f68"></path><path d="M219.22,182.54H180.78a1,1,0,0,1,0-2h38.44a1,1,0,0,1,0,2Z" fill="#dfeaef"></path></g></svg>