<svg id="Layer_1" data-name="Layer 1" xmlns="http://www.w3.org/2000/svg" viewBox="0 0 400 300" width="406" height="306" data-imageid="quality-check-b" imageName="Like" class="illustrations_image" style="width: 222px;"><path d="M227.76,85.76s33.81,9.43,24.11,38.48L232,122.66Z" fill="#68e1fd" class="target-color"/><path d="M227.76,85.76s33.81,9.43,24.11,38.48L232,122.66Z" fill="#fff" opacity="0.44"/><path d="M195,78.16l15,2.63s54.13,5.87,30.64,49.78S158.93,150,158.93,150,108.78,72.47,195,78.16Z" fill="#68e1fd" class="target-color"/><path d="M127.11,66.09c-25.15,9.77-43.8,34.55-47.48,64.52-3.1,25.25,4.31,53.15,47.9,61.1,84.84,15.47,164.29,19.88,184.57-21.86s14-113.23-29-117.85C248.86,48.32,176.23,47,127.11,66.09Z" fill="#e6e6e6" opacity="0.3"/><polygon points="199.47 50.98 194.4 78.36 210.66 88.3 207.24 59.46 199.47 50.98" fill="#f4a28c"/><path d="M208,64a10.07,10.07,0,0,1-4.89-3.09s.09,5.1,5.55,10.27Z" fill="#ce8172" opacity="0.31"/><rect x="120.78" y="124.24" width="158.65" height="109.58" rx="12" fill="#e6e6e6"/><polygon points="181.77 212.54 200.38 259.24 220.04 212.54 181.77 212.54" fill="#e6e6e6"/><rect x="153.02" y="158.58" width="35.37" height="41.83" fill="#24285b"/><path d="M188.39,163s15.37.87,18-14.21l1.55-8.93a5.22,5.22,0,0,1,8.7-3A11.37,11.37,0,0,1,220,145c.54,11-5,14.81,6.34,18s17.1,6.08,15.94,14.49S231,184.73,231,189.65s-2.9,13-20.29,10.15-22.33-2.61-22.33-2.61Z" fill="#fff"/><path d="M161.57,131.51s9.72,2.89,13.11-2.72-4.56-32.16-14.62-46.29a33.13,33.13,0,0,0-6.4,3.93C151.36,88.45,161.57,131.51,161.57,131.51Z" opacity="0.08"/><path d="M133.43,70.78a67.65,67.65,0,0,0-2.83-16.5c-2.57-7.9,4.47-5.09,5.13-.23s7.35-4.64,10.57,2.48S143,68.36,143,68.36Z" fill="#f4a28c"/><path d="M132.54,70.17S140.76,135,157,133c26.49-3.3-13.41-63.57-13.41-63.57Z" fill="#f4a28c"/><circle cx="173.01" cy="172.28" r="5.44" fill="#fff" opacity="0.07"/><path d="M251.87,124.24s-11.23-8-15.83-2.09S241.66,136.8,251.87,124.24Z" fill="#f4a28c"/><rect x="131.65" y="67.29" width="13.39" height="4.6" transform="translate(-5.41 12) rotate(-4.87)" fill="#24285b"/><path d="M211.9,49s1.67,8.34.88,14.09A4.27,4.27,0,0,1,208,66.76c-2.89-.44-6.68-1.87-8.12-6.23l-3.35-7.09s-1.94-4.52,2.44-8.48S211.13,43.91,211.9,49Z" fill="#f4a28c"/><path d="M212.68,54.34l2.72,3a1.35,1.35,0,0,1-.61,2.21l-3.16,1Z" fill="#f4a28c"/><path d="M196.74,62.23,193.85,51s-6.44-1.13-4.49-5.33,4.52-1.4,4.64-6.23,4-5.8,6.82-3.07,1.49-1.07,5-1.58,4.39,1.06,4.46,3.7,5.09-.16,6.36,3.18,1.45,6.58-7.19,7.09S206.93,56.44,196.74,62.23Z" fill="#ffd200"/><path d="M203.73,57.27s-.42-3.24-2.84-2.72-1.82,5.21,1.55,5.28Z" fill="#f4a28c"/></svg>