<svg xmlns="http://www.w3.org/2000/svg" viewBox="0 0 400 300" width="406" height="306" class="illustration styles_illustrationTablet__1DWOa"><g id="_75_job_interview" data-name="#75_job_interview"><path d="M170.3,115.93a45.81,45.81,0,0,1,3.57-15.16c.3-.72,1-1.58,1.69-1.21q-.6,3.33-1.21,6.64A39.6,39.6,0,0,0,184.85,96a2.74,2.74,0,0,1,1-1,.92.92,0,0,1,1.24.33,1.34,1.34,0,0,1-.22,1.13,40.88,40.88,0,0,1-4.2,6.14c2-3,4.19-6.12,7.37-7.87a18.52,18.52,0,0,1-3.77,9.55l5.09-5.66c.46-.52,1.23-1.07,1.77-.64s.18,1.28-.19,1.84l-3.54,5.28q2.7-2.37,5.61-4.48c-.34,3.22-2.8,5.8-5.42,7.69s-5.57,3.41-7.72,5.82a26.23,26.23,0,0,0-3.28,5.14" fill="#fff"></path><path d="M178.58,119.73a.59.59,0,0,1-.22,0,.46.46,0,0,1-.18-.62,25.88,25.88,0,0,1,3.34-5.23,26.21,26.21,0,0,1,5.45-4.3c.79-.52,1.58-1,2.34-1.59,2.74-2,4.43-4.08,5-6.26-1.59,1.2-3.15,2.46-4.64,3.76a.45.45,0,0,1-.68-.59l3.54-5.28c.3-.46.52-1,.28-1.23s-.75.15-1.14.58l-5.09,5.67a.47.47,0,0,1-.64,0,.45.45,0,0,1-.07-.63,18.18,18.18,0,0,0,3.57-8.39A16.35,16.35,0,0,0,186,98.83a42.21,42.21,0,0,1-3,4.06.47.47,0,0,1-.63.08.46.46,0,0,1-.1-.62,48.68,48.68,0,0,1,3-4.07c.43-.67.83-1.35,1.22-2,.13-.25.28-.55.2-.73a.25.25,0,0,0-.15-.13.64.64,0,0,0-.47,0,2.43,2.43,0,0,0-.81.84,40.17,40.17,0,0,1-10.63,10.33.47.47,0,0,1-.51,0,.44.44,0,0,1-.19-.46c.37-2,.75-4.08,1.11-6.12a2.07,2.07,0,0,0-.72,1,45.21,45.21,0,0,0-3.53,15,.46.46,0,0,1-.92-.06,46,46,0,0,1,3.61-15.31,2.67,2.67,0,0,1,1.36-1.5,1.15,1.15,0,0,1,1,.07.44.44,0,0,1,.23.48c-.33,1.86-.67,3.71-1,5.57a39.25,39.25,0,0,0,9.48-9.46,3.23,3.23,0,0,1,1.18-1.17,1.56,1.56,0,0,1,1.18,0,1.17,1.17,0,0,1,.67.62,1.2,1.2,0,0,1,.07.74,13,13,0,0,1,2.24-1.56.44.44,0,0,1,.47,0,.46.46,0,0,1,.21.42,18.91,18.91,0,0,1-1.52,5.8l2-2.26c.84-.94,1.76-1.2,2.4-.68s.58,1.42-.1,2.45l-1.75,2.6c1-.84,2.1-1.65,3.17-2.43a.46.46,0,0,1,.49,0,.45.45,0,0,1,.23.44c-.3,2.84-2.18,5.54-5.61,8-.77.56-1.57,1.08-2.37,1.61a25.33,25.33,0,0,0-5.27,4.15,25.6,25.6,0,0,0-3.22,5A.46.46,0,0,1,178.58,119.73Z" fill="#231f20"></path><path d="M44.42,123.57c4-4.45,10.34-7.39,15.65-8.63,13.05-3.07,27.52-4.2,40.43.3,20.15,7,15.93,32.06,17.74,49.32.93,8.86,1.07,18.55,4.35,26.88,3.63,9.21,1.69,17.36-6.52,24-6.17,5-14.39,6.86-22.32,6.72-8.79-.16-22.86,3.36-30.31-1.9-10.62-7.5-12.58-24.09-15.45-35.76a288.23,288.23,0,0,1-7.46-46.61,22.83,22.83,0,0,1,.41-8.33A15.36,15.36,0,0,1,44.42,123.57Z" fill="#231f20"></path><path d="M75.84,223.62c-4.8,0-9.35-.65-12.66-3-9.09-6.42-11.86-19.06-14.3-30.22-.44-2-.87-4-1.31-5.79a288.48,288.48,0,0,1-7.48-46.69,23.18,23.18,0,0,1,.42-8.49,16.19,16.19,0,0,1,3.58-6.17h0c3.61-4,9.55-7.28,15.88-8.76,15.76-3.7,29.45-3.6,40.68.31,16.38,5.71,16.93,23.17,17.42,38.57.13,3.94.25,7.67.61,11.13.19,1.85.35,3.75.52,5.66.6,7.16,1.23,14.57,3.8,21.1,3.79,9.62,1.55,17.87-6.66,24.51-5.62,4.56-13.64,7-22.6,6.82-2.46-.05-5.34.2-8.38.46S79,223.62,75.84,223.62Zm5.6-110.93a93.14,93.14,0,0,0-21.27,2.68C54,116.81,48.24,120,44.74,123.86h0a15.08,15.08,0,0,0-3.38,5.83,22.69,22.69,0,0,0-.4,8.17,290.25,290.25,0,0,0,7.46,46.55c.45,1.83.88,3.77,1.33,5.82,2.4,11,5.13,23.46,13.94,29.68,5.22,3.68,13.92,2.94,21.59,2.28,3.07-.26,6-.51,8.47-.46,8.78.17,16.58-2.2,22-6.62,7.87-6.38,10-14.29,6.39-23.51-2.61-6.65-3.25-14.12-3.86-21.35-.16-1.9-.32-3.79-.52-5.64-.37-3.49-.48-7.23-.61-11.19-.48-15.12-1-32.26-16.83-37.76A57.24,57.24,0,0,0,81.44,112.69Zm-37,10.88h0Z" fill="#231f20"></path><path d="M83.67,101.06l2.84-11.38c3.07-12.31,7.3-25,20.77-28.84,4-1.13,8-.68,10.69,2.93,2.72-2.29,7-1.06,9.8,1.11,3.9,3,6.47,7.43,8.17,12,3,8.12,3.53,16.9,7,25-17.18,12.68-41.72,14.47-60.56,4.42Z" fill="#fff"></path><path d="M108.93,113.36a57,57,0,0,1-26.8-6.57.45.45,0,0,1-.23-.51L83.23,101h0l2.84-11.38c3-12.07,7.37-25.28,21.08-29.16,4.59-1.31,8.44-.34,10.9,2.72,2.94-2.06,7.19-.77,10,1.39,3.51,2.69,6.31,6.81,8.32,12.24A88.26,88.26,0,0,1,139.5,88.4a77.28,77.28,0,0,0,3.82,13.39.47.47,0,0,1-.15.55A57.87,57.87,0,0,1,108.93,113.36Zm-26.06-7.21a57.46,57.46,0,0,0,59.47-4.34,79.06,79.06,0,0,1-3.73-13.21,88.88,88.88,0,0,0-3.1-11.53c-1.94-5.26-4.64-9.24-8-11.83-2.65-2-6.68-3.26-9.23-1.12a.44.44,0,0,1-.35.1.44.44,0,0,1-.31-.18c-2.83-3.86-7.1-3.63-10.2-2.76C94.15,65,90,77.43,87,89.79Z" fill="#231f20"></path><path d="M137,115.45c3.47,3.24,11.22,15.45,18.28,28.25L169.91,113l11.88,3.54s-10.75,56.69-21.35,59-25.05-23-25.05-23l-16.21-44.51S131.82,110.6,137,115.45Z" fill="#68e1fd"></path><path d="M118,113.41s16,9,19.15,24.57-3,63.18-3,63.18l-39.7-1.65s6.47-56.74,2.59-69.09-3.76-15.78,0-17S111,105.69,118,113.41Z" fill="#fff"></path><path d="M134.16,201.62h0L94.44,200a.48.48,0,0,1-.33-.15.45.45,0,0,1-.1-.35c.06-.57,6.41-56.79,2.61-68.9-3.92-12.45-3.86-16.23.29-17.58.59-.19,1.37-.53,2.27-.92,4.56-2,13-5.64,19.09,1,1.14.66,16.3,9.77,19.31,24.83,3.09,15.44-2.91,62.85-3,63.33A.45.45,0,0,1,134.16,201.62ZM95,199.07l38.79,1.62c.59-4.73,5.83-48.1,2.93-62.62-3-15.17-18.78-24.17-18.93-24.26a.27.27,0,0,1-.12-.09c-5.62-6.22-13.43-2.84-18.1-.82-.92.4-1.71.74-2.35.95-3.11,1-3.76,3.52.3,16.44C101.21,142.11,95.63,193.14,95,199.07Z" fill="#231f20"></path><path d="M127.86,209.41c-1.06-25.22-3.49-45.64-4-52.78-.57-7.82-2.58-30.52-4.74-40.45-2.8-6.18-1.59-8-1.59-8s15.8-2.22,20.5,21.36c1.39,6.95,4.92,47.46,8.32,78.93Z" fill="#68e1fd"></path><path d="M119.16,104l.07,12.14S118,123,110.62,120.9a15.31,15.31,0,0,1-9.81-8.71l.84-21a37.79,37.79,0,0,0,1.22-11.27c9-.15,16-6.92,16-6.92s3.08,4.64,4.42,6.1a18.6,18.6,0,0,1,2.78,3.66c1.24,2.34,1.19,5.25,1.13,7.84a50.94,50.94,0,0,1-.91,9.14C125.13,105.45,119.16,104,119.16,104Z" fill="#fff"></path><path d="M113.24,121.75a10.29,10.29,0,0,1-2.74-.41,15.62,15.62,0,0,1-10.12-9,.35.35,0,0,1,0-.17s.83-20.89.83-21a5,5,0,0,1,.22-1,35,35,0,0,0,1-10.2.44.44,0,0,1,.13-.33.43.43,0,0,1,.32-.14c8.68-.14,15.65-6.72,15.72-6.79a.47.47,0,0,1,.7.08c0,.05,3.08,4.62,4.38,6a18.93,18.93,0,0,1,2.84,3.76c1.31,2.46,1.25,5.56,1.19,8.06a50.38,50.38,0,0,1-.92,9.22,5.8,5.8,0,0,1-2.48,3.89,7.25,7.25,0,0,1-4.67.87l.07,11.6a7.33,7.33,0,0,1-3,4.64A6.27,6.27,0,0,1,113.24,121.75Zm-12-9.63a15,15,0,0,0,9.48,8.34,6.6,6.6,0,0,0,5.41-.41,6.46,6.46,0,0,0,2.62-4L118.7,104a.46.46,0,0,1,.17-.36.49.49,0,0,1,.39-.09,6.65,6.65,0,0,0,4.54-.65,4.89,4.89,0,0,0,2.07-3.31,49.25,49.25,0,0,0,.91-9c0-2.51.12-5.36-1.09-7.62A18,18,0,0,0,123,79.4c-1.11-1.22-3.36-4.51-4.17-5.71-1.6,1.41-7.75,6.35-15.48,6.66a35.09,35.09,0,0,1-1,10,4.63,4.63,0,0,0-.18.85h0S102.09,91.53,101.27,112.12Z" fill="#231f20"></path><path d="M119.09,110s-4.93.22-8.09-3.06-2.7-6.6-2.7-6.6,5.33,3.58,10.86,3.7Z" fill="#231f20"></path><path d="M118.87,110.45c-1.06,0-5.29-.2-8.19-3.21-3.28-3.4-2.84-6.81-2.82-7a.44.44,0,0,1,.26-.34.42.42,0,0,1,.42,0s5.29,3.5,10.63,3.62a.44.44,0,0,1,.43.44l-.07,6a.44.44,0,0,1-.42.43Zm.22-.45h0Zm-10.37-8.87a8.7,8.7,0,0,0,2.59,5.5c2.47,2.56,6.12,2.89,7.34,2.93l.06-5.1A23.6,23.6,0,0,1,108.72,101.13Z" fill="#231f20"></path><path d="M114.86,86.6s3.91,5.83,3,6.85-3.53.34-3.53.34" fill="#fff"></path><path d="M116,94.45a8.18,8.18,0,0,1-1.84-.23.45.45,0,0,1-.32-.54.44.44,0,0,1,.54-.32c.61.15,2.48.45,3.09-.21.33-.47-1.08-3.41-3-6.3a.45.45,0,0,1,.74-.5c1.23,1.85,4,6.25,2.93,7.4A2.84,2.84,0,0,1,116,94.45Z" fill="#231f20"></path><ellipse cx="122.83" cy="85.59" rx="0.67" ry="1.26" transform="translate(-3.27 4.9) rotate(-2.25)" fill="#231f20"></ellipse><ellipse cx="111.83" cy="84.64" rx="0.67" ry="1.26" transform="translate(-3.24 4.46) rotate(-2.25)" fill="#231f20"></ellipse><path d="M117.52,96.87l-3.11-.8s-.63,4.54,1.12,4.94S117.52,96.87,117.52,96.87Z" fill="#fff"></path><path d="M115.74,101.48a1.1,1.1,0,0,1-.31,0C113.34,101,113.9,96.52,114,96a.44.44,0,0,1,.2-.3.4.4,0,0,1,.35-.06l3.11.79a.44.44,0,0,1,.33.45c0,.35-.21,3.4-1.42,4.31A1.32,1.32,0,0,1,115.74,101.48Zm-.95-4.85c-.13,1.45-.07,3.74.84,4a.41.41,0,0,0,.38-.09c.6-.45.94-2.12,1-3.28Z" fill="#231f20"></path><path d="M105.7,85c-.81-2.13-3.52-2.92-5.58-2.51a3.49,3.49,0,0,0-2.83,2.64,6.48,6.48,0,0,0,0,2.52A13,13,0,0,0,98.78,92a4.68,4.68,0,0,0,1.51,1.76,2.37,2.37,0,0,0,2.69-.18" fill="#fff"></path><path d="M101.46,94.57a2.66,2.66,0,0,1-1.42-.42,5.14,5.14,0,0,1-1.66-1.92,13.41,13.41,0,0,1-1.56-4.56,6.92,6.92,0,0,1,0-2.7A3.9,3.9,0,0,1,100,82c2.3-.46,5.21.46,6.1,2.79a.46.46,0,0,1-.26.59.46.46,0,0,1-.59-.27c-.72-1.87-3.14-2.6-5.07-2.22a3,3,0,0,0-2.48,2.3,6.06,6.06,0,0,0,0,2.34,12.68,12.68,0,0,0,1.46,4.26,4.31,4.31,0,0,0,1.35,1.59,1.92,1.92,0,0,0,2.19-.17.46.46,0,1,1,.52.76A3.14,3.14,0,0,1,101.46,94.57Z" fill="#231f20"></path><path d="M76.76,209.41A149.23,149.23,0,0,0,80,191c1.28-14.38,0-63.33,3.06-73.07,1.48-4.65,17.13-8.06,17.13-8.06s15,79.36,15,100.8Z" fill="#68e1fd"></path><path d="M103.29,168.24c3.68-.63,7-2.34,10.45-3.79,1.38-.58,2.79-1.11,4.22-1.55,1.68-.52,3.29-1.52,5.09-1.57,1.12,0,.83,1.55.41,2.12a5.81,5.81,0,0,1-1.53,1.3c-1.05.72-3.27,2-3.65,3.3a23.91,23.91,0,0,0,4.23.34c1.52.17,3,.4,4.52.69s2.92.63,4.36,1a24.34,24.34,0,0,1,3.79,1c.29.15.6.37.62.69.07,1.14-2.49,1-3.13.94l-11.79-1.18a73.69,73.69,0,0,1,12.22,2.2,1.65,1.65,0,0,1,1,.56c1,1.51-3.22,1.59-3.69,1.6a64.52,64.52,0,0,1-6.52-.17l5.3.88c1.18.2,2.37.39,3.54.69a3.73,3.73,0,0,1,1.75.85.35.35,0,0,1,.12.23c0,.12-.13.2-.24.25a7.65,7.65,0,0,1-3.15.56,38.34,38.34,0,0,1-6.6-.44l6.54.7a2.47,2.47,0,0,1,1.6.58.9.9,0,0,1-.39,1,2.44,2.44,0,0,1-1.12.34,58.3,58.3,0,0,1-7.24,0,57.56,57.56,0,0,1-7.87-.5,46.71,46.71,0,0,1-14.84-4.44" fill="#fff"></path><path d="M128.67,182c-.78,0-1.54,0-2.3-.06s-1.58-.06-2.38,0a60.18,60.18,0,0,1-7.93-.5,47.22,47.22,0,0,1-15-4.49.47.47,0,0,1-.21-.62.47.47,0,0,1,.62-.2,46,46,0,0,0,14.69,4.4A55.43,55.43,0,0,0,124,181c.81,0,1.62,0,2.42.06a29,29,0,0,0,4.76-.08,2.26,2.26,0,0,0,.92-.26.52.52,0,0,0,.24-.41,2.3,2.3,0,0,0-1.23-.36l-3.07-.33c-1.17-.07-2.34-.2-3.5-.37a.47.47,0,0,1-.38-.52.46.46,0,0,1,.5-.39l3.45.37q1.54.09,3.09.06a7.54,7.54,0,0,0,2.76-.42,3.74,3.74,0,0,0-1.35-.57c-1.15-.29-2.34-.49-3.5-.68l-5.29-.88a.45.45,0,0,1,.1-.9c2.15.16,4.33.21,6.48.16s3.25-.44,3.38-.69c0-.05,0-.15-.06-.2a1.32,1.32,0,0,0-.74-.37A72.54,72.54,0,0,0,120.83,172a.46.46,0,0,1-.41-.45v-.05a.47.47,0,0,1,.5-.41l11.79,1.19a4.45,4.45,0,0,0,2.57-.31c.06-.06.07-.1.06-.15s-.08-.17-.36-.3a10.24,10.24,0,0,0-2.34-.68c-.47-.1-.94-.19-1.38-.32-1.42-.4-2.87-.75-4.32-1s-3-.52-4.48-.68a15.31,15.31,0,0,0-1.54-.07,10.37,10.37,0,0,1-2.76-.29.44.44,0,0,1-.28-.22.47.47,0,0,1,0-.35c.38-1.26,2.11-2.4,3.37-3.24l.62-.42a4.76,4.76,0,0,0,1.26-1.07,1.63,1.63,0,0,0,.22-1.3s-.08-.11-.25-.1a9,9,0,0,0-3.27.91c-.55.22-1.12.46-1.7.64a41,41,0,0,0-4.17,1.54c-.63.26-1.26.54-1.88.81a37.31,37.31,0,0,1-8.68,3,.46.46,0,0,1-.15-.9,36.87,36.87,0,0,0,8.46-2.93l1.89-.83a45.33,45.33,0,0,1,4.26-1.57,17.09,17.09,0,0,0,1.62-.61,10.46,10.46,0,0,1,3.6-1,1.17,1.17,0,0,1,1.08.6,2.43,2.43,0,0,1-.29,2.25,5.52,5.52,0,0,1-1.48,1.3l-.64.43a11,11,0,0,0-2.77,2.29,12.93,12.93,0,0,0,2,.13,14.74,14.74,0,0,1,1.62.07c1.52.16,3,.4,4.56.69s2.95.64,4.39,1.05c.42.12.87.21,1.31.3a11,11,0,0,1,2.55.75,1.33,1.33,0,0,1,.89,1.07,1.07,1.07,0,0,1-.35.87c-.7.67-2.4.63-3.08.57l.39.11a2.07,2.07,0,0,1,1.25.75,1.06,1.06,0,0,1,.11,1.13c-.38.72-1.78,1.12-4.15,1.17h0c.8.14,1.62.29,2.42.5a4,4,0,0,1,2,1,.77.77,0,0,1,.24.56.75.75,0,0,1-.5.65,6,6,0,0,1-1.67.48,1.94,1.94,0,0,1,.21.2.35.35,0,0,1,.08.13,1.35,1.35,0,0,1-.55,1.57,2.83,2.83,0,0,1-1.33.41A19.13,19.13,0,0,1,128.67,182Z" fill="#231f20"></path><path d="M83,117.91s-30.77,56-19.74,59.76c4.52,1.54,45,3.91,45,3.91l4.29-17.46-30.32-4.69Z" fill="#68e1fd"></path><path d="M122.83,92.71A7.15,7.15,0,1,1,130,85.57,7.15,7.15,0,0,1,122.83,92.71Zm0-13.37a6.23,6.23,0,1,0,6.23,6.23A6.24,6.24,0,0,0,122.83,79.34Z" fill="#231f20"></path><path d="M109,91.56a7.14,7.14,0,1,1,7.14-7.14A7.15,7.15,0,0,1,109,91.56Zm0-13.37a6.23,6.23,0,1,0,6.22,6.23A6.24,6.24,0,0,0,109,78.19Z" fill="#231f20"></path><path d="M112.56,164.57h-.07l-30.32-4.69a.44.44,0,0,1-.31-.2.45.45,0,0,1-.07-.36l7.3-31.5A.46.46,0,0,1,90,128l-7.19,31,29.84,4.61a.46.46,0,0,1,.38.53A.45.45,0,0,1,112.56,164.57Z" fill="#231f20"></path><path d="M142.65,172.77a.45.45,0,0,1-.45-.4l-4.77-39.54c-.93-7.74-.93-7.74-.51-7.83l.18.9-.09-.45.46,0c.06.68,5.58,46.38,5.64,46.84a.46.46,0,0,1-.4.51Z" fill="#231f20"></path><path d="M149.47,154.7a.46.46,0,0,1-.41-.66l18.12-36.33a.46.46,0,0,1,.61-.21.47.47,0,0,1,.21.62l-18.12,36.33A.45.45,0,0,1,149.47,154.7Z" fill="#231f20"></path><path d="M59.32,155.49h-.06a.5.5,0,0,1-.44-.55c0-.17,1.94-17.13,0-25.67-1-4.55-2.48-6.23-3.52-6.84a1.88,1.88,0,0,0-1.43-.3.51.51,0,0,1-.63-.33.5.5,0,0,1,.32-.62,2.81,2.81,0,0,1,2.19.36c1.78,1,3.14,3.53,4,7.52,2,8.69.09,25.29,0,26A.49.49,0,0,1,59.32,155.49Z" fill="#fff"></path><path d="M102.33,148.2A.43.43,0,0,1,102,148L92.75,137.4a.45.45,0,0,1,0-.62l6-6.13-6-5.61a.46.46,0,0,1-.07-.58c1-1.47,5.84-8.82,6.25-9.23a.46.46,0,0,1,.65,0,.45.45,0,0,1,0,.64c-.32.36-3.64,5.32-5.92,8.77l6,5.66a.45.45,0,0,1,.14.33.51.51,0,0,1-.13.33l-6,6.16,9,10.32a.47.47,0,0,1-.05.65A.48.48,0,0,1,102.33,148.2Z" fill="#231f20"></path><path d="M125,145.64a.53.53,0,0,1-.27-.08.47.47,0,0,1-.11-.64l7.25-10.33-7.56-6a.47.47,0,0,1-.17-.33.42.42,0,0,1,.12-.34l4.58-4.8-8-7.21a.47.47,0,0,1,0-.65.46.46,0,0,1,.65,0l8.3,7.53a.44.44,0,0,1,.15.32.42.42,0,0,1-.13.33l-4.55,4.77,7.51,6a.45.45,0,0,1,.09.62l-7.5,10.69A.47.47,0,0,1,125,145.64Z" fill="#231f20"></path><path d="M302.72,104.66c2.11-.09,4.21-.45,6.66-.66,2.28-.2,5.21-1,5.25-3.33,0-2-2.31-3.56-1.79-5.45a4.21,4.21,0,0,1,.81-1.38,21.1,21.1,0,0,0-3.63-29,1.18,1.18,0,0,0,1.38-1.09,2.59,2.59,0,0,0-.73-1.84,13,13,0,0,0-6.33-3.86,40.17,40.17,0,0,0-23.66,0c-5.92,1.73-13,6.44-12.23,13.58.28,2.56,2.29,5.07,4.87,5.18,1.32,7.65,5.33,12.87,10.37,18.41a30.78,30.78,0,0,0,12.41,8.44A17,17,0,0,0,302.72,104.66Z" fill="#fff"></path><path d="M301.79,105.18a17,17,0,0,1-5.85-1,31.13,31.13,0,0,1-12.62-8.58c-4.66-5.11-8.95-10.37-10.42-18.27-2.76-.36-4.67-3.06-4.95-5.6-.76-7,5.77-12.12,12.59-14.11a40.79,40.79,0,0,1,23.95,0,13.73,13.73,0,0,1,6.57,4,3.07,3.07,0,0,1,.84,2.2,1.85,1.85,0,0,1-.79,1.32,21.59,21.59,0,0,1,2.94,29l-.07.09a3.86,3.86,0,0,0-.66,1.12,3.44,3.44,0,0,0,.79,2.52,5.37,5.37,0,0,1,1,2.81c0,2.09-2.17,3.51-5.71,3.81-1,.09-2,.21-2.89.31-1.31.16-2.54.31-3.79.36h0Zm-8.91-48.35a42.83,42.83,0,0,0-12.06,1.76C276,60,268.14,64.31,269,71.63c.24,2.2,2,4.64,4.39,4.75a.49.49,0,0,1,.47.41c1.23,7.11,4.69,12,10.25,18.15a30.29,30.29,0,0,0,12.21,8.31,16.33,16.33,0,0,0,6.42.91h0c1.22,0,2.43-.2,3.72-.35.93-.11,1.9-.22,2.93-.31s4.75-.58,4.79-2.84a4.59,4.59,0,0,0-.88-2.28c-.6-1-1.23-2.07-.89-3.29a4.43,4.43,0,0,1,.82-1.46l.07-.09a20.57,20.57,0,0,0-3.55-28.27.5.5,0,0,1-.12-.63.49.49,0,0,1,.59-.24.39.39,0,0,0,.36-.07.84.84,0,0,0,.37-.59,2.16,2.16,0,0,0-.62-1.48c-1.64-2-4.27-3.09-6.1-3.69A36.17,36.17,0,0,0,292.88,56.83Z" fill="#231f20"></path><path d="M271.28,88s-5.46,9-4.19,10.76,5.21.41,5.21.41" fill="#fff"></path><path d="M269.45,100.15A3.26,3.26,0,0,1,266.68,99c-1.35-1.89,2.85-9.13,4.17-11.31a.5.5,0,1,1,.85.52c-2.54,4.19-4.87,9.28-4.2,10.2.86,1.21,3.63.58,4.63.24a.51.51,0,0,1,.64.31.5.5,0,0,1-.31.63A10.23,10.23,0,0,1,269.45,100.15Z" fill="#231f20"></path><path d="M272.07,76.36C268.5,79.52,269.81,85.83,270,90q.4,8.73,1.21,17.43c.34,3.68,9.9,3.39,11.54,2.22l-.93,14.63s4.63,1.08,12.2-2.78,7.57-5.69,7.57-5.69L300.3,99S294,99.27,290,91.9,285.66,73,285.66,73,275.55,73.29,272.07,76.36Z" fill="#fff"></path><path d="M283.54,124.9a8.34,8.34,0,0,1-1.84-.16.48.48,0,0,1-.38-.52l.88-13.81c-2.14.67-6.76.76-9.37-.44a3.12,3.12,0,0,1-2.12-2.52c-.53-5.78-.94-11.65-1.21-17.46,0-.69-.09-1.44-.16-2.24-.34-4-.76-9,2.4-11.76h0c3.58-3.16,13.49-3.51,13.91-3.52a.42.42,0,0,1,.35.13.48.48,0,0,1,.16.35c0,.12.34,11.53,4.25,18.71,3.81,7,9.63,6.83,9.87,6.82a.49.49,0,0,1,.52.46l1.28,16.8c0,.4-.37,2.36-7.84,6.17A23.84,23.84,0,0,1,283.54,124.9Zm-1.2-1.07c1.28.14,5.42.27,11.45-2.81,6.9-3.52,7.3-5.27,7.3-5.29l-1.25-16.26c-1.61-.08-6.79-.88-10.31-7.33s-4.24-16.3-4.35-18.65c-2.05.11-9.9.71-12.78,3.25h0c-2.78,2.45-2.38,7.15-2.06,10.93.07.81.13,1.57.16,2.28.27,5.79.68,11.64,1.21,17.4.06.7.58,1.27,1.54,1.71,2.79,1.29,8.14.92,9.21.16a.49.49,0,0,1,.53,0,.5.5,0,0,1,.26.47Z" fill="#231f20"></path><path d="M271.18,103.06s4.62,2.6,6.84-2.16" fill="#fff"></path><path d="M274,104.27a6.73,6.73,0,0,1-3-.78.49.49,0,0,1-.19-.68.5.5,0,0,1,.68-.19,5.27,5.27,0,0,0,3.7.47,4.18,4.18,0,0,0,2.44-2.4.5.5,0,0,1,.67-.24.5.5,0,0,1,.24.66,5.11,5.11,0,0,1-3.05,2.93A4.83,4.83,0,0,1,274,104.27Z" fill="#231f20"></path><path d="M282.77,93.13a5.76,5.76,0,0,1,1.56-3.21,10.14,10.14,0,0,1,2.07-2.18,4.67,4.67,0,0,1,3.11-.91,3.37,3.37,0,0,1,2.31,1.29,4.21,4.21,0,0,1,.77,2.22c.32,3.4-1.9,7-5.57,9l.31-.29" fill="#fff"></path><path d="M287,99.81a.52.52,0,0,1-.41-.21.5.5,0,0,1,.07-.66l.32-.29a.48.48,0,0,1,.38-.13c3.12-1.94,5-5.14,4.72-8.13a3.75,3.75,0,0,0-.68-2,2.86,2.86,0,0,0-2-1.09,4.16,4.16,0,0,0-2.77.82,9.88,9.88,0,0,0-2,2.08,5.47,5.47,0,0,0-1.46,2.9.5.5,0,0,1-.5.5h0a.5.5,0,0,1-.5-.5,6.18,6.18,0,0,1,1.67-3.52,10.47,10.47,0,0,1,2.17-2.27,5.11,5.11,0,0,1,3.46-1,3.87,3.87,0,0,1,2.65,1.49,4.68,4.68,0,0,1,.87,2.48c.33,3.57-2,7.37-5.83,9.45A.53.53,0,0,1,287,99.81Z" fill="#231f20"></path><path d="M282.75,109.62s4.89-1.72,7.07-5.21c0,0,0,8.87-7.48,11.73Z" fill="#231f20"></path><path d="M282.34,116.64a.47.47,0,0,1-.3-.1.48.48,0,0,1-.2-.43l.41-6.52a.5.5,0,0,1,.33-.44c.05,0,4.76-1.71,6.81-5a.5.5,0,0,1,.93.26c0,.09-.08,9.25-7.81,12.2A.47.47,0,0,1,282.34,116.64Zm.89-6.66-.34,5.39c4.55-2.14,5.88-6.79,6.27-9.29A17.32,17.32,0,0,1,283.23,110Z" fill="#231f20"></path><ellipse cx="274.44" cy="83.83" rx="0.82" ry="2.08" transform="translate(-11.35 57.94) rotate(-11.81)" fill="#231f20"></ellipse><path d="M247.49,176c-2.61,1.52-6,.53-8.5-1.18A17.14,17.14,0,0,1,231.71,162a8.58,8.58,0,0,1,.93-4.94C239.41,145.73,258.15,169.8,247.49,176Z" fill="#fff"></path><path d="M244.58,177.24a10.76,10.76,0,0,1-5.85-2,17.67,17.67,0,0,1-7.47-13.16,8.88,8.88,0,0,1,1-5.2c1.51-2.53,3.7-3.6,6.37-3.11,5.22,1,11.23,8,12.36,14.4.65,3.73-.51,6.66-3.26,8.27A6.07,6.07,0,0,1,244.58,177.24Zm-7.18-22.7a5,5,0,0,0-4.36,2.79,7.91,7.91,0,0,0-.87,4.67,16.76,16.76,0,0,0,7.08,12.47c2.22,1.53,5.49,2.63,8,1.16h0c3.07-1.79,3.23-5,2.82-7.32-1.06-6-6.81-12.78-11.63-13.67A6.42,6.42,0,0,0,237.4,154.54Z" fill="#231f20"></path><polygon points="198.15 179.95 244.78 179.38 223.18 124.41 176.55 124.97 198.15 179.95" fill="#fff"></polygon><path d="M198.15,180.4a.43.43,0,0,1-.42-.29l-21.61-55a.45.45,0,0,1,0-.42.43.43,0,0,1,.37-.2l46.63-.57a.55.55,0,0,1,.43.29l21.61,55a.46.46,0,0,1-.42.62l-46.63.56Zm-20.94-55,21.25,54.07,45.66-.56-21.25-54.06Z" fill="#231f20"></path><polygon points="199.74 178.61 246.37 178.05 224.77 123.08 178.14 123.64 199.74 178.61" fill="#fff"></polygon><path d="M199.74,179.07a.44.44,0,0,1-.42-.29l-21.61-55a.48.48,0,0,1,0-.42.46.46,0,0,1,.37-.21l46.64-.56a.52.52,0,0,1,.43.29l21.6,55a.45.45,0,0,1-.05.42.46.46,0,0,1-.37.21l-46.63.56Zm-20.93-55,21.24,54.06,45.66-.55-21.25-54.06Z" fill="#231f20"></path><path d="M195.41,151.55a.51.51,0,0,1-.5-.5.5.5,0,0,1,.5-.5l33.28-.4h0a.5.5,0,0,1,.5.49.51.51,0,0,1-.5.51l-33.28.4Z" fill="#d1d3d4"></path><path d="M197.61,157.15a.5.5,0,1,1,0-1l33.28-.4a.47.47,0,0,1,.51.49.5.5,0,0,1-.49.51l-33.29.4Z" fill="#d1d3d4"></path><path d="M199.82,162.75a.5.5,0,0,1,0-1l33.29-.4h0a.5.5,0,0,1,0,1l-33.29.4Z" fill="#d1d3d4"></path><path d="M214.2,168.21a.51.51,0,0,1-.5-.5.5.5,0,0,1,.5-.5l21.1-.26h0a.5.5,0,0,1,0,1l-21.1.26Z" fill="#d1d3d4"></path><path d="M193.65,147.05a.49.49,0,0,1-.47-.31L186,128.42a.51.51,0,0,1,.46-.68l18.14-.22h0a.5.5,0,0,1,.47.31l7.19,18.32a.5.5,0,0,1-.05.46.48.48,0,0,1-.41.22l-18.14.22Zm-6.47-18.32,6.8,17.32,17.08-.21-6.81-17.32Z" fill="#d1d3d4"></path><path d="M221.5,133.62l-1.11,0-.9-2.3h-.81l-.54,2.31-1.34,0,.71-2.42a2.5,2.5,0,0,1-1.26-.47,2.17,2.17,0,0,1-.76-1,1.29,1.29,0,0,1-.11-.76.81.81,0,0,1,.33-.48,1.67,1.67,0,0,1,.65-.26,4.44,4.44,0,0,1,.84-.08l2.17,0Zm-2.34-3.11-.58-1.48-1,0-.43,0a1.34,1.34,0,0,0-.37.1.43.43,0,0,0-.21.23.48.48,0,0,0,0,.38,1,1,0,0,0,.28.42,1.36,1.36,0,0,0,.41.22,2.43,2.43,0,0,0,.47.08l.49,0Z" fill="#d1d3d4"></path><path d="M216,133.69l-4.29.05-.34-.87,3.18,0-.58-1.47-2.86,0-.35-.87,2.87,0-.53-1.33-3,0-.34-.87,4.13-.05Z" fill="#d1d3d4"></path><path d="M218.33,135.44A1.38,1.38,0,0,1,219,135a2.94,2.94,0,0,1,.91-.14,3.84,3.84,0,0,1,.88.08,3.89,3.89,0,0,1,.85.3,2.81,2.81,0,0,1,.72.5,2,2,0,0,1,.49.73,1.09,1.09,0,0,1,.08.77.94.94,0,0,1-.36.47,2.14,2.14,0,0,1-.61.28,6.55,6.55,0,0,0-.63.22,1.33,1.33,0,0,0-.44.28.41.41,0,0,0,0,.46.94.94,0,0,0,.23.33,1.41,1.41,0,0,0,.35.23,1.7,1.7,0,0,0,.4.13,1.46,1.46,0,0,0,.41,0,1.32,1.32,0,0,0,.64-.15.85.85,0,0,0,.37-.43l1.11.7a1.31,1.31,0,0,1-.7.58,3.44,3.44,0,0,1-1.05.18,4.12,4.12,0,0,1-.92-.1,3.45,3.45,0,0,1-.85-.31,2.84,2.84,0,0,1-.71-.54,2.31,2.31,0,0,1-.49-.76,1.15,1.15,0,0,1-.08-.77,1,1,0,0,1,.36-.48,2.14,2.14,0,0,1,.61-.28c.23-.07.44-.15.63-.22a1.57,1.57,0,0,0,.45-.26.38.38,0,0,0,.05-.43,1,1,0,0,0-.21-.31,1.4,1.4,0,0,0-.32-.22,2.4,2.4,0,0,0-.38-.12l-.39,0a1.54,1.54,0,0,0-.58.11.58.58,0,0,0-.34.33Z" fill="#d1d3d4"></path><path d="M212,135.09h1.11l1.34,3.4a1.75,1.75,0,0,0,.23.42,2.11,2.11,0,0,0,.39.4,2.29,2.29,0,0,0,.56.3,2,2,0,0,0,.71.11,1.33,1.33,0,0,0,.62-.13.71.71,0,0,0,.31-.31.75.75,0,0,0,.07-.4,1.43,1.43,0,0,0-.09-.42L215.89,135H217l1.35,3.44a2,2,0,0,1,.16.89,1.12,1.12,0,0,1-.27.67,1.41,1.41,0,0,1-.63.44,2.58,2.58,0,0,1-.93.16,3.37,3.37,0,0,1-1.05-.14,3.44,3.44,0,0,1-1-.41,4,4,0,0,1-.8-.67,2.94,2.94,0,0,1-.54-.88Z" fill="#d1d3d4"></path><path d="M226.51,146.21h-.85l-1.43-3.63h0l-.1,3.65h-.62l-2.95-3.61h0l1.42,3.63h-.85l-1.72-4.37,1.35,0,2.56,3.05.13-3.08,1.36,0Z" fill="#d1d3d4"></path><path d="M220,146.29l-3.45,0-.28-.7,2.56,0-.46-1.18-2.31,0-.27-.7,2.3,0-.42-1.07-2.43,0-.28-.71,3.32,0Z" fill="#d1d3d4"></path><path d="M193.94,141.52c-1-1.18-.66-2.56-.73-3.9s-.6-2.64-.65-3.92a5.05,5.05,0,0,1,2.58-4.18,2.6,2.6,0,0,1,3.05.11c.49-.77,1.71-.71,2.65-.31a8.57,8.57,0,0,1,3.27,2.65,10.26,10.26,0,0,1,2.18,4.5,5.56,5.56,0,0,1-.95,4.47,6,6,0,0,1-3.79,2,16.16,16.16,0,0,1-4.6-.08,4.93,4.93,0,0,1-2.68-1A3.53,3.53,0,0,1,193.94,141.52Z" fill="#fff"></path><path d="M199.79,143.54a21.91,21.91,0,0,1-2.9-.22,5.31,5.31,0,0,1-2.95-1.08,3.66,3.66,0,0,1-.39-.4h0a4.53,4.53,0,0,1-.83-3.28c0-.31,0-.61,0-.91a12.06,12.06,0,0,0-.31-1.88,11,11,0,0,1-.34-2,5.53,5.53,0,0,1,2.83-4.64,3.09,3.09,0,0,1,3.22-.11,2.9,2.9,0,0,1,2.92-.12,9,9,0,0,1,3.47,2.8,10.76,10.76,0,0,1,2.29,4.72,6.06,6.06,0,0,1-1.06,4.87,6.52,6.52,0,0,1-4.1,2.16A11.39,11.39,0,0,1,199.79,143.54Zm-5.47-2.34a2.69,2.69,0,0,0,.29.3,4.36,4.36,0,0,0,2.41.83,15.7,15.7,0,0,0,4.45.09,5.52,5.52,0,0,0,3.48-1.8,5,5,0,0,0,.85-4.06,9.87,9.87,0,0,0-2.08-4.28,8.16,8.16,0,0,0-3.07-2.5c-.75-.31-1.72-.38-2,.12a.45.45,0,0,1-.33.22.49.49,0,0,1-.39-.09,2.09,2.09,0,0,0-2.5-.08,4.55,4.55,0,0,0-2.33,3.73,10,10,0,0,0,.31,1.87,11.85,11.85,0,0,1,.34,2c0,.32,0,.65,0,1a3.58,3.58,0,0,0,.6,2.62Z" fill="#d1d3d4"></path><path d="M202.89,142.57l.07.08a8.37,8.37,0,0,0,.54.66l0,0a15.53,15.53,0,0,1,1.79,3.07l3.77,0h1c-.15-.31-.28-.54-.38-.71-1.63-2.77-3.36-3.89-4.72-4.31a4.63,4.63,0,0,0-2.21-.14,2.44,2.44,0,0,0-.42.11S202.23,141.67,202.89,142.57Z" fill="#d1d3d4"></path><path d="M202.35,140.12l1.18,3.18s.33,1.85-1.78,1.77a4.9,4.9,0,0,1-3.37-1.68l-1.8-5.57a10.63,10.63,0,0,0-.76-3,6.11,6.11,0,0,0,3.49-2.8s1.25,1,1.73,1.33a5.59,5.59,0,0,1,1.07.79,4.81,4.81,0,0,1,1,2,15.35,15.35,0,0,1,.64,2.46C204,140.12,202.35,140.12,202.35,140.12Z" fill="#fff"></path><path d="M201.89,145.57h-.16A5.44,5.44,0,0,1,198,143.7a.8.8,0,0,1-.08-.16c-1.34-4.15-1.69-5.24-1.78-5.56h0a1.23,1.23,0,0,1-.06-.36,9.8,9.8,0,0,0-.7-2.65.47.47,0,0,1,0-.4.49.49,0,0,1,.32-.26,5.61,5.61,0,0,0,3.17-2.55.52.52,0,0,1,.35-.26.48.48,0,0,1,.41.11c.34.28,1.3,1,1.68,1.29a6.18,6.18,0,0,1,1.15.85,5.3,5.3,0,0,1,1.17,2.18,14.3,14.3,0,0,1,.66,2.54,1.76,1.76,0,0,1-.36,1.48,1.83,1.83,0,0,1-.9.56l1,2.61a2.15,2.15,0,0,1-.41,1.79A2.13,2.13,0,0,1,201.89,145.57Zm-3.07-2.43a4.46,4.46,0,0,0,3,1.43,1.33,1.33,0,0,0,1.06-.31,1.23,1.23,0,0,0,.21-.88l-1.16-3.09a.54.54,0,0,1,.06-.46.52.52,0,0,1,.41-.21,1.22,1.22,0,0,0,.83-.32.82.82,0,0,0,.12-.68,14.06,14.06,0,0,0-.61-2.37,4.53,4.53,0,0,0-.93-1.78,5.14,5.14,0,0,0-1-.72c-.32-.2-.93-.68-1.35-1a6.58,6.58,0,0,1-3,2.37,10,10,0,0,1,.57,2.4c0,.08,0,.13,0,.17S198.58,142.41,198.82,143.14Z" fill="#d1d3d4"></path><path d="M196.06,135a1.1,1.1,0,0,0-1.22,0,1.2,1.2,0,0,0-.11,1.3,5.73,5.73,0,0,0,.83,1.46,2.25,2.25,0,0,0,.72.69.73.73,0,0,0,.88-.07" fill="#fff"></path><path d="M196.72,139.06a1.46,1.46,0,0,1-.66-.16,2.69,2.69,0,0,1-.9-.84,6.38,6.38,0,0,1-.9-1.59,1.65,1.65,0,0,1,.25-1.85,1.58,1.58,0,0,1,1.8-.05.5.5,0,0,1-.5.87.64.64,0,0,0-.64-.07c-.11.1-.09.42,0,.76a5.16,5.16,0,0,0,.76,1.33,1.78,1.78,0,0,0,.55.55.37.37,0,0,0,.27,0,.49.49,0,0,1,.7-.07.51.51,0,0,1,.07.71A1,1,0,0,1,196.72,139.06Z" fill="#d1d3d4"></path><path d="M194.31,144.51a11.91,11.91,0,0,0,.39,2l3.14,0,1.93,0c-.6-1.23-1.13-2.33-1.52-3.11-.08-.15-.15-.3-.21-.42l-.42-.85a13.08,13.08,0,0,0-1.46.6C195.26,143.14,194.28,143.79,194.31,144.51Z" fill="#d1d3d4"></path><ellipse cx="201.54" cy="135.05" rx="1.71" ry="1.93" transform="translate(-30.38 206.26) rotate(-50.9)" fill="#fff"></ellipse><path d="M201.77,137.35a2.66,2.66,0,0,1-2.44-1.72h0a2.2,2.2,0,0,1,.11-1.8,2,2,0,0,1,1.34-1,2.61,2.61,0,0,1,3,1.66,2.25,2.25,0,0,1-.1,1.8,2,2,0,0,1-1.35,1A2.24,2.24,0,0,1,201.77,137.35Zm-1.5-2.06a1.64,1.64,0,0,0,1.79,1,1.1,1.1,0,0,0,.7-.52,1.21,1.21,0,0,0,0-1,1.61,1.61,0,0,0-1.79-1,1,1,0,0,0-.69.52,1.21,1.21,0,0,0,0,1Z" fill="#d1d3d4"></path><ellipse cx="197.85" cy="135.6" rx="1.71" ry="1.93" transform="matrix(0.63, -0.78, 0.78, 0.63, -32.17, 203.6)" fill="#fff"></ellipse><path d="M198.08,137.9a2.66,2.66,0,0,1-2.44-1.72h0a2.2,2.2,0,0,1,.11-1.8,2,2,0,0,1,1.34-1,2.61,2.61,0,0,1,3,1.66,2.25,2.25,0,0,1-.1,1.8,2,2,0,0,1-1.35,1A2.31,2.31,0,0,1,198.08,137.9Zm-1.5-2.06a1.63,1.63,0,0,0,1.79,1,1.1,1.1,0,0,0,.7-.52,1.21,1.21,0,0,0,0-1,1.62,1.62,0,0,0-1.79-1,1.06,1.06,0,0,0-.69.52,1.21,1.21,0,0,0,0,1Z" fill="#d1d3d4"></path><path d="M199.57,135.81s1.57,1.29,1.43,1.61-.89.31-.89.31" fill="#fff"></path><path d="M200.15,138.23h-.05a.5.5,0,0,1,0-1h.22a10.32,10.32,0,0,0-1.09-1,.5.5,0,1,1,.64-.78c1.86,1.54,1.67,2,1.56,2.21C201.21,138.17,200.45,138.23,200.15,138.23Zm.37-.77h0Z" fill="#d1d3d4"></path><path d="M200.55,139.38a2.67,2.67,0,0,1-.9-.16.5.5,0,1,1,.34-.94,1.91,1.91,0,0,0,1.83-.4.5.5,0,0,1,.71,0,.48.48,0,0,1,0,.7A3.09,3.09,0,0,1,200.55,139.38Z" fill="#d1d3d4"></path><path d="M186,134.55a2.81,2.81,0,0,1-2.49-1.62l-3.27-8.34a1.9,1.9,0,0,1,.13-1.8,2.15,2.15,0,0,1,1.8-.85,3.92,3.92,0,0,1,3.47,2.24l1,2.64a.5.5,0,0,1-.28.65.51.51,0,0,1-.65-.28l-1-2.65a2.91,2.91,0,0,0-2.53-1.6,1.13,1.13,0,0,0-1,.41,1,1,0,0,0,0,.88l3.28,8.33a1.78,1.78,0,0,0,1.57,1,.63.63,0,0,0,.53-.21.48.48,0,0,0,0-.45L184,126.27a.6.6,0,0,0-.53-.32l2.34,6a.5.5,0,1,1-.93.36l-2.37-6a.94.94,0,0,1,.08-.91,1,1,0,0,1,.87-.43h0a1.64,1.64,0,0,1,1.46,1l2.6,6.62a1.47,1.47,0,0,1-.11,1.37,1.58,1.58,0,0,1-1.35.65Z" fill="#231f20"></path><path d="M249.48,164.9a19.86,19.86,0,0,0-7.43-9.5,14.89,14.89,0,0,0-5.47-2.62c-2.12-.36-2.55,1.73-.89,2.87l4.17,2.84c.3.21.66.4.94.64.48.43.41.2.31.75a10.61,10.61,0,0,0,.25,5.16,25,25,0,0,0,1.58,3.64" fill="#fff"></path><path d="M243,169.14a.45.45,0,0,1-.41-.25,26.32,26.32,0,0,1-1.62-3.71,11.21,11.21,0,0,1-.26-5.38l0-.16-.19-.16a3.88,3.88,0,0,0-.57-.4l-.33-.21L235.44,156a2.32,2.32,0,0,1-1.1-2.68,2,2,0,0,1,2.32-1,15.44,15.44,0,0,1,5.65,2.69,20.4,20.4,0,0,1,7.6,9.72.46.46,0,0,1-.27.59.46.46,0,0,1-.59-.27,19.39,19.39,0,0,0-7.26-9.29,14.61,14.61,0,0,0-5.29-2.54c-.66-.11-1.15.06-1.31.45s0,1.07.76,1.59l4.17,2.84.3.2a4.42,4.42,0,0,1,.68.48l.22.18a.65.65,0,0,1,.28.79l0,.2a10.28,10.28,0,0,0,.23,4.94,26,26,0,0,0,1.56,3.58.44.44,0,0,1-.2.61A.39.39,0,0,1,243,169.14Z" fill="#231f20"></path><rect x="224.72" y="197.19" width="50.95" height="41.82" transform="translate(500.39 436.19) rotate(-180)" fill="#d1d3d4"></rect><path d="M275.67,239.5h-51a.5.5,0,0,1-.5-.5V197.19a.5.5,0,0,1,.5-.5h51a.5.5,0,0,1,.5.5V239A.5.5,0,0,1,275.67,239.5Zm-50.45-1h50V197.69h-50Z" fill="#d1d3d4"></path><rect x="229.52" y="191.49" width="43.29" height="5.7" transform="translate(502.33 388.67) rotate(-180)" fill="#fff"></rect><path d="M272.81,197.64H229.52a.46.46,0,0,1-.46-.45v-5.71a.46.46,0,0,1,.46-.45h43.29a.46.46,0,0,1,.46.45v5.71A.46.46,0,0,1,272.81,197.64ZM230,196.73h42.37v-4.79H230Z" fill="#231f20"></path><rect x="167.29" y="181.74" width="111.83" height="9.52" transform="translate(446.41 372.99) rotate(-180)" fill="#fff"></rect><path d="M279.12,191.71H167.29a.45.45,0,0,1-.45-.46v-9.51a.45.45,0,0,1,.45-.46H279.12a.46.46,0,0,1,.46.46v9.51A.46.46,0,0,1,279.12,191.71Zm-111.37-.91H278.67v-8.61H167.75Z" fill="#231f20"></path><rect x="52.68" y="181.74" width="122.42" height="9.52" transform="translate(227.79 372.99) rotate(-180)" fill="#fff"></rect><path d="M175.11,191.71H52.68a.45.45,0,0,1-.45-.46v-9.51a.45.45,0,0,1,.45-.46H175.11a.46.46,0,0,1,.46.46v9.51A.46.46,0,0,1,175.11,191.71Zm-122-.91H174.65v-8.61H53.14Z" fill="#231f20"></path><polygon points="275.52 127.02 277.8 117.56 310.54 111.84 311.39 123.25 275.52 127.02" fill="#fff"></polygon><path d="M275.52,127.52a.51.51,0,0,1-.49-.62l2.28-9.46a.5.5,0,0,1,.4-.38l32.75-5.71a.51.51,0,0,1,.39.1.52.52,0,0,1,.19.36l.85,11.4a.51.51,0,0,1-.45.54l-35.87,3.76ZM278.2,118l-2,8.45,34.68-3.64-.77-10.37Z" fill="#231f20"></path><path d="M336.54,130s-14.76-13.81-43.92-9.9-26.42,18-28.52,31.85,0,64.05,0,64.05-38.78-6.58-43,0-.68,24.33-.68,24.33H265.3l62.53-5.11Z" fill="#68e1fd"></path><path d="M283.34,225S291.9,129,305,118.16s49-7,54,6-17.43,96.39-22.4,107.66-7,10.75-30.66,10.75c-15,0-70.61,4.06-74.67-3.61S240.05,224.12,283.34,225Z" fill="#231f20"></path><path d="M262.87,244.11c-17,0-30-1.09-32.05-4.9a5.31,5.31,0,0,1,0-5.51c4-6.47,22.48-9.71,52.07-9.12.71-7.73,9-96.2,21.77-106.76,8.77-7.26,26.51-7.74,38.74-4.51,8.49,2.24,14.14,6,15.91,10.73,5.14,13.55-17.66,97.22-22.4,108-4.86,11-7.05,11-28.07,11h-3c-3.11,0-8.06.18-13.8.39C281.94,243.8,271.85,244.11,262.87,244.11Zm13.6-18.72c-25.19,0-41.39,3.14-44.86,8.77a4.42,4.42,0,0,0,0,4.64c3.09,5.82,40.4,4.48,60.45,3.76,5.74-.21,10.7-.39,13.83-.39h3c20.91,0,22.64,0,27.26-10.49,5.1-11.59,27.2-94.63,22.39-107.33-1.67-4.4-7.11-8-15.31-10.19-16.11-4.26-31.58-.94-38,4.34-12.79,10.58-21.4,105.61-21.48,106.56a.46.46,0,0,1-.44.41h0Q279.79,225.4,276.47,225.39Z" fill="#231f20"></path><path d="M258.64,201c-6,.81-12.41,2.58-16.07,7.4-4.54,6-3.3,14.39-1.85,21.76a37.66,37.66,0,0,1,8.33,1.75,24.47,24.47,0,0,1-1.18-13.39,9.09,9.09,0,0,1,2.79-5.52,10.44,10.44,0,0,1,5.28-1.78c12-1.63,22.88.19,34.66,1.69,1.9-6.9-.69-10.73-7.25-11.67A89.7,89.7,0,0,0,258.64,201Z" fill="#231f20"></path><path d="M249.05,232.3l-.14,0a36.89,36.89,0,0,0-8.23-1.73.44.44,0,0,1-.39-.35c-1.48-7.51-2.68-16,1.93-22.11,4.06-5.36,11.28-6.89,16.36-7.58h0a90.42,90.42,0,0,1,24.83.25c3.39.48,5.76,1.73,7.06,3.71S292,209.4,291,213a.46.46,0,0,1-.48.32l-3.73-.49c-10.37-1.36-20.16-2.65-30.81-1.2a10,10,0,0,0-5.06,1.68c-1.29,1-2.15,2.76-2.64,5.27a24.24,24.24,0,0,0,1.16,13.14.43.43,0,0,1-.09.46A.45.45,0,0,1,249.05,232.3Zm-8-2.59a38.09,38.09,0,0,1,7.24,1.46,25.23,25.23,0,0,1-.9-12.78c.53-2.72,1.5-4.61,2.95-5.78a11,11,0,0,1,5.5-1.88c10.76-1.46,20.61-.17,31,1.21l3.35.43c.81-3.14.63-5.64-.54-7.41s-3.32-2.88-6.44-3.33a89.07,89.07,0,0,0-24.59-.24h0c-4.92.66-11.91,2.14-15.78,7.23C238.6,214.32,239.67,222.46,241.09,229.71Z" fill="#231f20"></path><path d="M279.28,223a.45.45,0,0,1-.2,0l-15.18-6.51a.5.5,0,0,1,.39-.92l15.18,6.52a.49.49,0,0,1,.27.65A.5.5,0,0,1,279.28,223Z" fill="#231f20"></path><rect x="167.29" y="191.25" width="62.23" height="52.43" transform="translate(396.81 434.94) rotate(-180)" fill="#fff"></rect><path d="M229.52,244.14H167.29a.45.45,0,0,1-.45-.46V191.25a.45.45,0,0,1,.45-.45h62.23a.46.46,0,0,1,.46.45v52.43A.46.46,0,0,1,229.52,244.14Zm-61.77-.91h61.31V191.71H167.75Z" fill="#231f20"></path><rect x="58.04" y="191.25" width="109.26" height="52.43" transform="translate(225.33 434.94) rotate(-180)" fill="#fff"></rect><path d="M167.29,244.14H58a.45.45,0,0,1-.46-.46V191.25a.45.45,0,0,1,.46-.45H167.29a.46.46,0,0,1,.46.45v52.43A.46.46,0,0,1,167.29,244.14Zm-108.8-.91H166.84V191.71H58.49Z" fill="#231f20"></path><path d="M223.21,236.59H174.57a.5.5,0,0,1-.5-.5V198.87a.5.5,0,0,1,.5-.5h48.64a.51.51,0,0,1,.5.5v37.22A.5.5,0,0,1,223.21,236.59Zm-48.14-1h47.64V199.37H175.07Z" fill="#d1d3d4"></path><path d="M198.69,211.55a3.83,3.83,0,1,1,3.82-3.83A3.84,3.84,0,0,1,198.69,211.55Zm0-6.65a2.83,2.83,0,1,0,2.82,2.82A2.83,2.83,0,0,0,198.69,204.9Z" fill="#d1d3d4"></path><path d="M192.82,159.2c.56,1.81,1.19,3.59,1.92,5.33a69.46,69.46,0,0,0-6.86-5.08,2.28,2.28,0,0,0-1.51-.52A2.1,2.1,0,0,0,185,160.2c-2.06,4-1.07,9.08,1.42,12.86,4,6,10.85,11.22,18.26,10.81a2.6,2.6,0,0,0,1.37-.36,2.87,2.87,0,0,0,.72-.93q1.88-3.36,3.45-6.87a1.69,1.69,0,0,0,.22-1.23,1.78,1.78,0,0,0-.84-.83c-5.3-3.34-8.24-8.23-11.71-13.18-.7-1-2.3-4.62-3.81-4.56C192.39,156,192.43,157.93,192.82,159.2Z" fill="#fff"></path><path d="M203.87,184.35c-7.73,0-14.38-5.87-17.81-11-2.82-4.28-3.39-9.51-1.44-13.32a2.42,2.42,0,0,1,1.68-1.51,2.69,2.69,0,0,1,1.83.59c1.9,1.23,3.75,2.57,5.53,4-.47-1.23-.89-2.48-1.27-3.72a3.91,3.91,0,0,1,.18-3.13,1.86,1.86,0,0,1,1.51-.76c1.41,0,2.7,2.16,3.62,3.78a11.28,11.28,0,0,0,.59,1l1.26,1.83c3,4.29,5.75,8.34,10.31,11.22a1.75,1.75,0,0,1,.8,2.64c-1,2.34-2.22,4.66-3.47,6.9a3.16,3.16,0,0,1-.86,1.08,2.94,2.94,0,0,1-1.61.44C204.44,184.34,204.15,184.35,203.87,184.35Zm-17.32-25h-.11c-.36.05-.69.39-1,1-1.8,3.52-1.25,8.39,1.4,12.39,3.41,5.17,10.14,11,17.84,10.61a2.13,2.13,0,0,0,1.13-.28,2.28,2.28,0,0,0,.59-.78c1.24-2.21,2.39-4.51,3.44-6.82a1.47,1.47,0,0,0,.2-.9c-.08-.24-.39-.43-.66-.6-4.72-3-7.56-7.1-10.57-11.47l-1.26-1.83c-.17-.23-.38-.61-.63-1-.67-1.17-1.86-3.35-2.79-3.32a1,1,0,0,0-.8.38,3,3,0,0,0-.06,2.33h0c.54,1.78,1.18,3.56,1.9,5.29a.46.46,0,0,1-.16.54.44.44,0,0,1-.56,0,65.89,65.89,0,0,0-6.81-5A2.22,2.22,0,0,0,186.55,159.38Z" fill="#231f20"></path><path d="M290,131.23s-6,61.35-26.58,61-64-6.79-64-7.69,5.35-17,5.35-17,46.15,4.81,50.66-2.41,11.5-29.94,11.5-29.94" fill="#68e1fd"></path><path d="M265,192c-17.21,0-48.15-4-49.86-4.22a.5.5,0,0,1-.43-.56.51.51,0,0,1,.56-.44c18.81,2.46,55.56,6.24,59.94,3,5.5-4.05,14.16-39.93,14.24-40.3a.52.52,0,0,1,.61-.37.52.52,0,0,1,.37.61c-.36,1.49-8.83,36.6-14.62,40.87C274.43,191.57,270.39,192,265,192Z" fill="#231f20"></path><path d="M295.08,226.45H295a.49.49,0,0,1-.38-.59c7.24-32.84,20.74-96,20.07-100-1.1-6.58-7.43-5.64-7.7-5.6a.5.5,0,1,1-.16-1c.08,0,7.57-1.15,8.84,6.42.88,5.19-19.22,96.51-20.07,100.39A.51.51,0,0,1,295.08,226.45Z" fill="#fff"></path></g></svg>