<svg
      xmlns="http://www.w3.org/2000/svg"
      viewBox="0 0 400 300"
      width="406"
      height="306"
      class="illustration styles_illustrationTablet__1DWOa"
    >
      <g
        id="_323_notifications_flatline"
        data-name="#323_notifications_flatline"
      >
        <ellipse
          cx="206.79"
          cy="271.59"
          rx="50.34"
          ry="2.9"
          fill="#d1d3d4"
        ></ellipse>
        <path
          d="M150.65,144.35c-.28.36-1.22,20.44-2.25,21.47-2.8,2.8-2.44-3-2.44-3s-5.37,11.71-8.49,10.82c-5.68-1.62.22-15.18,1.67-17.93,1.38-5.36,1.56-16.07,1.56-16.07"
          fill="#fff"
        ></path>
        <path
          d="M137.8,174.18a1.89,1.89,0,0,1-.47-.06,3.48,3.48,0,0,1-2.31-2.07c-1.86-4.36,2.36-14.05,3.65-16.52,1.33-5.26,1.53-15.79,1.53-15.9a.51.51,0,0,1,.51-.49.49.49,0,0,1,.49.51c0,.44-.2,10.83-1.58,16.18a.36.36,0,0,1,0,.11c-1.13,2.16-5.34,11.73-3.64,15.72a2.5,2.5,0,0,0,1.67,1.5c1.86.53,5.74-5.85,7.89-10.55a.5.5,0,0,1,.58-.28.52.52,0,0,1,.38.52c-.09,1.36.13,3,.57,3.22.13.06.47-.06,1-.6.57-.87,1.25-10.36,1.62-15.46.41-5.73.43-5.77.6-6a.5.5,0,0,1,.7-.09.5.5,0,0,1,.15.59c-.09.4-.27,2.9-.46,5.54-.73,10.36-1.21,15.41-1.9,16.1s-1.53,1.08-2.13.8a2.58,2.58,0,0,1-1.1-2.1C143.85,168.22,140.47,174.18,137.8,174.18Z"
          fill="#231f20"
        ></path>
        <path
          d="M223.64,99.47l12-5.21s2.4-5.77,4.79-6.48A62.08,62.08,0,0,1,249,86.66a4.76,4.76,0,0,1,1.83,5.07c-.71,3.51-5.35,9.15-11.83,10.55L227.16,112.7"
          fill="#fff"
        ></path>
        <path
          d="M227.16,113.2a.52.52,0,0,1-.38-.17.49.49,0,0,1,.05-.7l11.82-10.42a.51.51,0,0,1,.23-.12c6.33-1.37,10.78-6.88,11.44-10.16a4.31,4.31,0,0,0-1.48-4.46,58.56,58.56,0,0,0-8.31,1.09c-1.77.53-3.82,4.65-4.46,6.19a.51.51,0,0,1-.27.27l-12,5.21a.5.5,0,0,1-.4-.92l11.78-5.13c.49-1.13,2.65-5.88,5-6.58a61.45,61.45,0,0,1,8.69-1.14.51.51,0,0,1,.3.07,5.22,5.22,0,0,1,2.06,5.59c-.72,3.62-5.32,9.39-12.08,10.92l-11.73,10.34A.52.52,0,0,1,227.16,113.2Z"
          fill="#231f20"
        ></path>
        <polygon
          points="247.99 79.48 233.12 98.44 241.8 99.47 255.59 81.03 247.99 79.48"
          fill="#231f20"
        ></polygon>
        <path
          d="M241.8,100h-.06l-8.68-1a.5.5,0,0,1-.4-.3.48.48,0,0,1,.07-.5l14.87-19a.49.49,0,0,1,.49-.18l7.61,1.55a.49.49,0,0,1,.36.31.47.47,0,0,1-.07.47L242.2,99.77A.52.52,0,0,1,241.8,100Zm-7.74-1.92,7.51.89,13.16-17.58L248.2,80Z"
          fill="#231f20"
        ></path>
        <polygon
          points="248.46 79.85 235.39 96.5 241.17 97.35 254.05 81.03 248.46 79.85"
          fill="#fff"
        ></polygon>
        <path
          d="M233.12,110l-5.89-13.66L197.7,110l3,23.57S227.25,117.73,233.12,110Z"
          fill="#68e1fd"
        ></path>
        <path
          d="M231,240.43s6.29,15.52,5.72,15.51-14.14,2.15-14.14,2.15-6.19-12.73-6-13S231,240.43,231,240.43Z"
          fill="#fff"
        ></path>
        <path
          d="M222.58,258.59a.5.5,0,0,1-.45-.28c-6.3-13-6.18-13.18-6-13.47s.24-.46,14.75-4.89a.51.51,0,0,1,.61.29c6.18,15.26,5.88,15.7,5.69,16a.5.5,0,0,1-.44.23c-.53,0-8.7,1.29-14.05,2.14Zm-5.43-13.24c.63,1.59,3.67,8,5.72,12.19,2.59-.42,11-1.76,13.31-2.05-.49-1.88-3.46-9.45-5.48-14.45C225.92,242.5,218.8,244.73,217.15,245.35Z"
          fill="#231f20"
        ></path>
        <path
          d="M236.72,255.94s22.31,1.66,22.91,5.74-33.4,9.91-33.4,9.91l-3.65-13.5Z"
          fill="#231f20"
        ></path>
        <path
          d="M226.23,272.08a.49.49,0,0,1-.48-.36l-3.65-13.5a.47.47,0,0,1,.06-.4.49.49,0,0,1,.34-.22l14.14-2.16h.12c3.79.28,22.74,1.91,23.36,6.17s-25.72,9.08-33.8,10.47Zm-3-13.58L226.59,271c16-2.77,32.87-7.06,32.54-9.27-.2-1.42-6.47-4.12-22.39-5.31Z"
          fill="#231f20"
        ></path>
        <polygon
          points="184.24 237.08 177.79 242.6 168.96 230.51 178.29 222.97 184.24 237.08"
          fill="#fff"
        ></polygon>
        <path
          d="M177.79,243.1h0a.49.49,0,0,1-.35-.2l-8.83-12.08a.5.5,0,0,1,.09-.69l9.33-7.54a.46.46,0,0,1,.44-.09.49.49,0,0,1,.34.29l6,14.11a.51.51,0,0,1-.14.57L178.12,243A.5.5,0,0,1,177.79,243.1Zm-8.14-12.5,8.23,11.27,5.76-4.93-5.55-13.16Z"
          fill="#231f20"
        ></path>
        <path
          d="M177.79,242.6s4.51,23.25.67,22.45-19.21-26.4-19.21-26.4l9.71-8.14Z"
          fill="#231f20"
        ></path>
        <path
          d="M178.66,265.56a1.53,1.53,0,0,1-.3,0c-3.93-.82-18-24-19.54-26.63a.51.51,0,0,1,.11-.64l9.71-8.13A.49.49,0,0,1,169,230a.47.47,0,0,1,.34.2l8.84,12.08a.5.5,0,0,1,.08.2c0,.05,1,5,1.62,10.25,1.35,10.76.07,12-.35,12.43A1.2,1.2,0,0,1,178.66,265.56ZM159.9,238.75c6.15,10.22,16,25.26,18.67,25.81a.28.28,0,0,0,.28-.08c1.63-1.61-.06-14.1-1.52-21.68l-8.46-11.56Z"
          fill="#231f20"
        ></path>
        <path
          d="M204.36,131.87s38.43,54.16,38.51,59c.18,9.42-58.29,50.06-58.29,50.06L174.73,223l35.83-32.26-33.67-61.25Z"
          fill="#231f20"
        ></path>
        <path
          d="M184.58,241.44h-.11a.45.45,0,0,1-.32-.25l-9.86-17.91a.49.49,0,0,1,.11-.61l35.53-32-33.48-60.9a.49.49,0,0,1,.48-.73l27.47,2.34a.52.52,0,0,1,.36.21c4,5.56,38.52,54.43,38.61,59.29.18,9.58-56.11,48.82-58.5,50.48A.52.52,0,0,1,184.58,241.44Zm-9.23-18.3,9.4,17.08c2.58-1.81,15.75-11.08,28.74-21.17,25.22-19.6,28.93-26.05,28.89-28.16-.07-3.83-27.54-43.37-38.3-58.54l-26.31-2.25L211,190.53a.5.5,0,0,1-.1.61Z"
          fill="#231f20"
        ></path>
        <polygon
          points="166.14 137.83 217.72 253.1 237.45 244.91 197.06 131.7 166.14 137.83"
          fill="#231f20"
        ></polygon>
        <path
          d="M217.72,253.6a.49.49,0,0,1-.45-.3L165.69,138a.49.49,0,0,1,0-.44.5.5,0,0,1,.34-.26L197,131.21a.51.51,0,0,1,.57.32l40.39,113.21a.5.5,0,0,1-.28.63l-19.73,8.19A.41.41,0,0,1,217.72,253.6ZM166.85,138.2,218,252.45l18.85-7.82-40.1-112.36Z"
          fill="#231f20"
        ></path>
        <path
          d="M224.89,208.18a.5.5,0,0,1-.47-.33l-23.14-62.67a.49.49,0,0,1,.07-.47l4-5.41a.51.51,0,0,1,.7-.1.5.5,0,0,1,.11.7l-3.84,5.18,23,62.42a.49.49,0,0,1-.29.64A.38.38,0,0,1,224.89,208.18Z"
          fill="#fff"
        ></path>
        <path
          d="M181.75,58A1.89,1.89,0,0,1,179.49,56L178.9,46a32.39,32.39,0,0,1,.32-9.07c.64-2.86,2.45-5.81,5.32-6.36,1-.18,2-.07,3-.32,1.83-.47,3.07-2.11,4.62-3.19a8.62,8.62,0,0,1,8.47-.72,15.22,15.22,0,0,0,2.2,1c2.42.69,4.85-1,7.35-1.2,3.78-.34,7.12,2.74,8.66,6.2,2.09,4.7,1.16,11.23-3.44,13.51-3.62,1.79-7.42.7-11.16.87-3.93.17-5.69,3.12-8.57,5.4a21.26,21.26,0,0,1-9.39,4.35c-1.28.22-1.69.78-2.84,1.16A6.11,6.11,0,0,1,181.75,58Z"
          fill="#fff"
        ></path>
        <path
          d="M181.57,58.47A2.36,2.36,0,0,1,179,56.06L178.4,46a32.75,32.75,0,0,1,.33-9.21c.65-2.86,2.49-6.13,5.72-6.74a11.6,11.6,0,0,1,1.41-.14,7.37,7.37,0,0,0,1.52-.17,7.71,7.71,0,0,0,3-1.91c.48-.41,1-.84,1.49-1.21a9.06,9.06,0,0,1,9-.76l.72.37a7.33,7.33,0,0,0,1.41.64,7.4,7.4,0,0,0,4.21-.52,14.09,14.09,0,0,1,2.95-.7c4.17-.37,7.61,3,9.17,6.5,2.17,4.88,1.21,11.74-3.68,14.16-2.63,1.31-5.36,1.15-8,1a31.47,31.47,0,0,0-3.36-.08c-2.71.12-4.3,1.63-6.15,3.38-.67.64-1.36,1.3-2.14,1.91A21.76,21.76,0,0,1,186.33,57a4.53,4.53,0,0,0-1.51.58,7.52,7.52,0,0,1-1.25.56,6.38,6.38,0,0,1-1.79.36ZM197,26a8,8,0,0,0-4.6,1.41A15.39,15.39,0,0,0,191,28.58a8.59,8.59,0,0,1-3.38,2.12,9.36,9.36,0,0,1-1.72.2,12.45,12.45,0,0,0-1.27.12c-2.76.52-4.36,3.43-4.94,6a31.79,31.79,0,0,0-.3,8.93L180,56c.06,1.07.59,1.52,1.74,1.46h0a5.69,5.69,0,0,0,1.53-.31,6.15,6.15,0,0,0,1.09-.49,5.35,5.35,0,0,1,1.81-.69,20.61,20.61,0,0,0,9.17-4.24c.75-.59,1.42-1.23,2.08-1.85,1.9-1.81,3.7-3.52,6.78-3.66a33.37,33.37,0,0,1,3.47.08c2.62.15,5.09.29,7.49-.9,4.37-2.16,5.19-8.39,3.21-12.85-1.37-3.08-4.51-6.24-8.17-5.91a13,13,0,0,0-2.74.66,8.26,8.26,0,0,1-4.78.52,8.12,8.12,0,0,1-1.61-.72c-.23-.12-.45-.24-.68-.34A7.77,7.77,0,0,0,197,26Z"
          fill="#231f20"
        ></path>
        <path
          d="M204.9,48.55s2.71,6.73,1.64,7.79S203,56,203,56"
          fill="#fff"
        ></path>
        <path
          d="M205.39,57.25a6.38,6.38,0,0,1-2.67-.77.51.51,0,0,1-.2-.68.49.49,0,0,1,.67-.2c.57.31,2.35,1,3,.39.44-.44-.38-3.83-1.75-7.25a.5.5,0,1,1,.93-.37c.85,2.11,2.7,7.16,1.53,8.33A2.05,2.05,0,0,1,205.39,57.25Z"
          fill="#231f20"
        ></path>
        <path
          d="M205.67,40.55c2.08,2.55.47,6.7-.12,9.5q-1.26,5.88-2.78,11.72c-.65,2.46-7.11,1.19-8.1.21l-1.09,8.37s-2.45,4.25-7.17.77-5.25-7.06-5.25-7.06l2.76-11.29s4.26.91,7.83-3.66,5.06-12.39,5.06-12.39S203.65,38.07,205.67,40.55Z"
          fill="#fff"
        ></path>
        <path
          d="M189.94,73a6.53,6.53,0,0,1-3.83-1.47c-4.82-3.56-5.42-7.23-5.44-7.39a.61.61,0,0,1,0-.19l2.77-11.29a.49.49,0,0,1,.58-.37c.17,0,4,.77,7.33-3.47,3.45-4.42,5-12.11,5-12.19a.55.55,0,0,1,.22-.32.48.48,0,0,1,.37-.07c.29.05,7,1.41,9.16,4h0c1.88,2.31,1,5.69.34,8.41-.13.53-.26,1-.36,1.5-.84,3.92-1.78,7.88-2.79,11.75a2.32,2.32,0,0,1-1.83,1.59,11.31,11.31,0,0,1-6.35-.68l-1,7.61a.55.55,0,0,1-.06.18,5.17,5.17,0,0,1-3.17,2.3A4.43,4.43,0,0,1,189.94,73Zm-8.27-8.92c.12.55,1,3.65,5,6.65a5,5,0,0,0,3.92,1.2,4.13,4.13,0,0,0,2.46-1.74l1.08-8.26a.51.51,0,0,1,.34-.41.5.5,0,0,1,.51.12,9.78,9.78,0,0,0,6.13.89c.65-.17,1-.47,1.14-.88,1-3.85,1.94-7.79,2.77-11.7.1-.48.23-1,.37-1.54.63-2.5,1.42-5.61-.14-7.53s-6.53-3.2-8.1-3.56c-.39,1.83-1.94,8.12-5.05,12.11s-6.57,4-7.84,3.91Z"
          fill="#231f20"
        ></path>
        <path d="M203.28,58.82s-3.44,1.25-4.42-2.24" fill="#fff"></path>
        <path
          d="M201.91,59.53a3.8,3.8,0,0,1-1.71-.38,3.7,3.7,0,0,1-1.82-2.43.5.5,0,1,1,1-.27,2.72,2.72,0,0,0,1.31,1.81,3.5,3.5,0,0,0,2.44.09.5.5,0,1,1,.35.94A5.32,5.32,0,0,1,201.91,59.53Z"
          fill="#231f20"
        ></path>
        <path
          d="M196.84,49.53a5.4,5.4,0,0,0-.55-2.93,7.65,7.65,0,0,0-1.06-2.07,2.59,2.59,0,0,0-2-1.08,2.47,2.47,0,0,0-1.8.9,4.61,4.61,0,0,0-.89,1.85,8.63,8.63,0,0,0,2.36,8.29l-.17-.28"
          fill="#fff"
        ></path>
        <path
          d="M192.92,55a.49.49,0,0,1-.34-.14,9.17,9.17,0,0,1-2.5-8.78,5.16,5.16,0,0,1,1-2A2.93,2.93,0,0,1,193.25,43a3.21,3.21,0,0,1,2.38,1.26,8.57,8.57,0,0,1,1.13,2.21,5.93,5.93,0,0,1,.57,3.2.49.49,0,0,1-.58.4.5.5,0,0,1-.4-.58,5.07,5.07,0,0,0-.52-2.65,7.16,7.16,0,0,0-1-1.95,2.27,2.27,0,0,0-1.59-.89,1.93,1.93,0,0,0-1.42.73,4,4,0,0,0-.78,1.65,8.16,8.16,0,0,0,1.82,7.39.48.48,0,0,1,.31.23l.17.28a.51.51,0,0,1-.11.65A.54.54,0,0,1,192.92,55Z"
          fill="#231f20"
        ></path>
        <path
          d="M194.67,62s-3.14-1.72-4.22-4.34c0,0-1,6,3.77,8.83Z"
          fill="#231f20"
        ></path>
        <path
          d="M194.22,67a.52.52,0,0,1-.25-.07c-5-2.93-4-9.27-4-9.34a.5.5,0,0,1,.44-.41.5.5,0,0,1,.52.3c1,2.42,4,4.08,4,4.1a.51.51,0,0,1,.26.49l-.46,4.48a.48.48,0,0,1-.27.39A.46.46,0,0,1,194.22,67Zm-3.37-7.63a7.87,7.87,0,0,0,3,6.25l.34-3.34A12.37,12.37,0,0,1,190.85,59.34Z"
          fill="#231f20"
        ></path>
        <ellipse
          cx="203.22"
          cy="45.37"
          rx="1.44"
          ry="0.56"
          transform="translate(87.47 218.46) rotate(-68.81)"
          fill="#231f20"
        ></ellipse>
        <path
          d="M174.44,64.8s17.4.7,21.86,10.12,3,41.72,5.58,44.44,8.72,16,8.52,16.55-46.53,5.58-46.53,5.58-.52-10.56-2.67-24.54S161.58,63.14,174.44,64.8Z"
          fill="#68e1fd"
        ></path>
        <path
          d="M182.13,157.81a.45.45,0,0,1-.31-.11.5.5,0,0,1-.09-.7c6.29-7.94,3.06-12.16,2.92-12.34a.49.49,0,0,1,.07-.7.5.5,0,0,1,.7.07c.16.2,3.91,5-2.9,13.59A.49.49,0,0,1,182.13,157.81Z"
          fill="#fff"
        ></path>
        <path
          d="M168.65,64.75S142,93.7,137.47,147.9l15-.31s6.66-27.86,25.25-58.45Z"
          fill="#68e1fd"
        ></path>
        <path
          d="M208.8,131.75h-.1a.52.52,0,0,1-.4-.44c-.17-.48-1.76-3.23-3.16-5.65-2-3.45-4.06-7-4.46-8.09-.45-1.24-1-10-1.76-21.4-.32-5-.6-9.3-.76-10.92a59.55,59.55,0,0,0-2.34-10.16.5.5,0,1,1,1-.31,59.31,59.31,0,0,1,2.38,10.37c.17,1.64.45,6,.76,11,.54,8.41,1.27,19.92,1.71,21.12.37,1,2.5,4.68,4.39,7.94,3.36,5.81,3.35,5.89,3.28,6.2A.5.5,0,0,1,208.8,131.75Z"
          fill="#231f20"
        ></path>
        <path
          d="M154.68,138.7a.45.45,0,0,1-.16,0,.51.51,0,0,1-.31-.64c.13-.36,13-36.56,26.43-53.77a.49.49,0,0,1,.7-.08.49.49,0,0,1,.08.7C168.06,102,155.28,138,155.16,138.37A.52.52,0,0,1,154.68,138.7Z"
          fill="#231f20"
        ></path>
        <path
          d="M243.91,97.35c.08-3.6.75-7.37,3-10.16.58-.7,1.49-1.38,2.31-1a2,2,0,0,1,.95,1.59,5.62,5.62,0,0,0,.39,1.87"
          fill="#fff"
        ></path>
        <path
          d="M243.91,97.85h0a.5.5,0,0,1-.49-.51c.1-4.57,1.12-8,3.13-10.46.92-1.13,2-1.56,2.91-1.15a2.36,2.36,0,0,1,1.23,2,4.26,4.26,0,0,1,.06.5,3.47,3.47,0,0,0,.28,1.22.5.5,0,0,1-.21.67.5.5,0,0,1-.68-.21,4.46,4.46,0,0,1-.38-1.57c0-.15,0-.31-.06-.46-.05-.36-.21-1-.65-1.2s-1.27.31-1.72.87c-1.87,2.29-2.82,5.51-2.91,9.85A.51.51,0,0,1,243.91,97.85Z"
          fill="#231f20"
        ></path>
        <path
          d="M171.69,54.3a11.86,11.86,0,0,0-4.43-2,10.18,10.18,0,0,0-6.19,1.51,15.94,15.94,0,0,0-6.35,5.63,8.59,8.59,0,0,0-.55,8.2,9.36,9.36,0,0,0,6.52,4.44,29.5,29.5,0,0,0,8.13.17,56.41,56.41,0,0,1,7.8-.09c5.33.4,10.46,2.15,15.7,3.16,3.31.63,2-2.87.75-4.17q-3.18-3.21-6.64-6.12A131.6,131.6,0,0,0,171.69,54.3Z"
          fill="#68e1fd"
        ></path>
        <path
          d="M184.1,73a.56.56,0,0,1-.27-.08,19.33,19.33,0,0,0-19.48-.83.5.5,0,0,1-.51-.85,20.31,20.31,0,0,1,20.54.84.5.5,0,0,1,.14.69A.48.48,0,0,1,184.1,73Z"
          fill="#231f20"
        ></path>
        <path
          d="M280.47,36.18H237.63a4.49,4.49,0,0,0-4.48,4.49V63.53A4.49,4.49,0,0,0,237.63,68h5.18v9L248,68h32.44A4.49,4.49,0,0,0,285,63.53V40.67A4.49,4.49,0,0,0,280.47,36.18Z"
          fill="#fff"
        ></path>
        <path
          d="M242.81,77.48a.3.3,0,0,1-.13,0,.48.48,0,0,1-.37-.48V68.52h-4.68a5,5,0,0,1-5-5V40.67a5,5,0,0,1,5-5h42.84a5,5,0,0,1,5,5V63.53a5,5,0,0,1-5,5H248.31l-5.07,8.71A.48.48,0,0,1,242.81,77.48Zm-5.18-40.8a4,4,0,0,0-4,4V63.53a4,4,0,0,0,4,4h5.18a.5.5,0,0,1,.5.5v7.11l4.28-7.36a.52.52,0,0,1,.44-.25h32.44a4,4,0,0,0,4-4V40.67a4,4,0,0,0-4-4Z"
          fill="#d1d3d4"
        ></path>
        <g id="_5xpas6.tif" data-name="5xpas6.tif">
          <path
            d="M259,59.64h-7.88a.55.55,0,0,1-.58-.48.54.54,0,0,1,.1-.41c.32-.47.64-.94.94-1.42a7.8,7.8,0,0,0,1.17-2.86,3.6,3.6,0,0,0,0-.66V49.55a6.94,6.94,0,0,1,.4-2.39,5.49,5.49,0,0,1,1.49-2.29,5.84,5.84,0,0,1,2.52-1.38c.09,0,.12-.05.12-.14s0-.45,0-.67a1.69,1.69,0,0,1,3.36-.25,6.76,6.76,0,0,1,0,.9c0,.1,0,.14.13.17a5.69,5.69,0,0,1,3.86,3.35,6.1,6.1,0,0,1,.51,2.27c0,.82,0,1.65,0,2.47s0,1.45,0,2.18a5.18,5.18,0,0,0,.5,2.22,15.79,15.79,0,0,0,1.44,2.44l.22.32a.55.55,0,0,1,0,.6.54.54,0,0,1-.51.29Zm.58-16.37c0-.19,0-.39,0-.59a.56.56,0,0,0-.53-.56.55.55,0,0,0-.58.46,5.3,5.3,0,0,0,0,.69Z"
            fill="#d1d3d4"
          ></path>
          <path d="M261.61,60.78a2.79,2.79,0,0,1-5.13,0Z" fill="#d1d3d4"></path>
        </g>
        <circle cx="280.68" cy="66.02" r="6.99" fill="#fff"></circle>
        <path
          d="M280.68,73.51A7.49,7.49,0,1,1,288.17,66,7.5,7.5,0,0,1,280.68,73.51Zm0-14A6.49,6.49,0,1,0,287.17,66,6.5,6.5,0,0,0,280.68,59.53Z"
          fill="#d1d3d4"
        ></path>
        <path
          d="M280.24,63.31l-1.68,1.38-.84-1,2.65-2.14h1.31v8.5h-1.44Z"
          fill="#d1d3d4"
        ></path>
      </g>
    </svg>