<svg xmlns="http://www.w3.org/2000/svg" xmlns:xlink="http://www.w3.org/1999/xlink" viewBox="0 0 400 300" width="406" height="306" class="illustration styles_illustrationTablet__1DWOa"><defs><linearGradient id="linear-gradient" x1="271.52" y1="214.64" x2="320.24" y2="177.04" gradientUnits="userSpaceOnUse"><stop offset="0" stop-color="#fff" stop-opacity="0"></stop><stop offset="1"></stop></linearGradient></defs><title>HA</title><g style="isolation: isolate;"><g id="Layer_2" data-name="Layer 2"><polygon points="58.9 229.34 170.73 293.63 351.94 189.14 239.44 127.25 58.9 229.34" fill="#a67593"></polygon><path d="M239.44,12.46V127.25L58.9,229.34V119.16a8.84,8.84,0,0,1,4.31-7.59l171-102.08A3.46,3.46,0,0,1,239.44,12.46Z" fill="#68e1fd"></path><path d="M58.9,126.7v-8.08a7.88,7.88,0,0,1,3.84-6.76L234.21,9.5a3.46,3.46,0,0,1,5.24,3v5.3Z" fill="#aaa"></path><path d="M58.9,216.32S103,202.6,122.43,166.14s42.89-108.2,117-110.21v71.33L58.9,229.34Z" fill="#f77f26"></path><path d="M66.3,188.28v.25a4.36,4.36,0,0,0,6.48,3.81L107,173.29a4.36,4.36,0,0,0,2.24-3.81h0a4.36,4.36,0,0,0-6.46-3.82l-34.27,18.8A4.36,4.36,0,0,0,66.3,188.28Z" fill="#66bc46"></path><path d="M113.55,133.76,65.73,161a1.13,1.13,0,0,0,1.14,1.94l47.82-27.23a1.13,1.13,0,0,0-1.14-1.94Z" fill="#b3b3b3"></path><path d="M113.55,140.82,65.73,168.05A1.13,1.13,0,0,0,66.86,170l47.82-27.23a1.13,1.13,0,0,0-1.14-1.94Z" fill="#b3b3b3"></path><path d="M113.55,148,65.73,175.25a1.13,1.13,0,0,0,1.14,1.94L114.69,150a1.13,1.13,0,0,0-1.14-1.94Z" fill="#b3b3b3"></path><path d="M64.54,114.75c-2.57,0-2.58,4,0,4S67.12,114.75,64.54,114.75Z" fill="#f77f26"></path><path d="M71,111.34c-2.57,0-2.58,4,0,4S73.6,111.34,71,111.34Z" fill="#ee3024"></path><path d="M77.66,108.27c-2.57,0-2.58,4,0,4S80.24,108.27,77.66,108.27Z" fill="#66bc46"></path><polygon points="175.25 134.42 212.8 116.39 194.02 101.18 175.25 134.42" fill="none" stroke="#f2f2f2" stroke-miterlimit="10" stroke-width="0.75"></polygon><ellipse cx="192.87" cy="95.85" rx="13.04" ry="9.71" transform="translate(43.11 250.64) rotate(-72.37)" fill="#fbcec5"></ellipse><ellipse cx="193.43" cy="92.64" rx="5.09" ry="3.49" transform="translate(61.8 261.97) rotate(-77.73)" fill="#c24327"></ellipse><path d="M186.57,107s2.1-9.19,7.39-10.31,6.59,5.6,6.59,5.6a11.68,11.68,0,0,1-7,5.94C188.26,110.06,186.57,107,186.57,107Z" fill="#c24327"></path><ellipse cx="174.22" cy="133.6" rx="12.27" ry="9.13" transform="translate(-5.87 259.18) rotate(-72.37)" fill="#f8ee5d"></ellipse><ellipse cx="174.75" cy="130.58" rx="4.79" ry="3.29" transform="translate(10.01 273.59) rotate(-77.73)" fill="#b25c27"></ellipse><path d="M168.29,144.12s2-8.65,7-9.7,6.2,5.27,6.2,5.27a11,11,0,0,1-6.58,5.59C169.88,147,168.29,144.12,168.29,144.12Z" fill="#b25c27"></path><ellipse cx="215.06" cy="115.08" rx="12.27" ry="9.13" transform="translate(40.25 285.18) rotate(-72.37)" fill="#c8e3ba"></ellipse><ellipse cx="215.58" cy="112.06" rx="4.79" ry="3.29" transform="translate(60.27 298.9) rotate(-77.73)" fill="#129f49"></ellipse><path d="M209.13,125.59s2-8.65,7-9.7,6.2,5.27,6.2,5.27a11,11,0,0,1-6.58,5.59C210.72,128.44,209.13,125.59,209.13,125.59Z" fill="#129f49"></path><polygon points="290.66 183.23 254.03 207.21 273.85 222.96 325.58 193.85 290.66 183.23" opacity="0.5" fill="url(#linear-gradient)" style="mix-blend-mode: multiply;"></polygon><path d="M290.79,152.75v37.94s36.46,2,36.46,0V152.75" fill="#68e1fd"></path><ellipse cx="309.02" cy="190.36" rx="18.23" ry="8.33" fill="#68e1fd"></ellipse><ellipse cx="309.02" cy="152.75" rx="18.23" ry="8.33" fill="#3129a3"></ellipse><path d="M297.65,159.23l.13.07c.7.24,1.41.46,2.13.65l-5-41.55a2.49,2.49,0,0,0-2.54.47l5.09,40.28Z" fill="#f78b72"></path><path d="M303.32,160.52l1.54-39a2.49,2.49,0,0,0-2.58.06L301,160.19A20.43,20.43,0,0,0,303.32,160.52Z" fill="#f78b72"></path><path d="M309,161.08l5-40.65,10.15,5.36-4.11,34.15A31,31,0,0,1,309,161.08Z" fill="#fcb749"></path><rect x="212.04" y="214.66" width="3.42" height="39.04" rx="1.27" ry="1.27" transform="translate(-19.68 19.61) rotate(-5.02)" fill="#c24327"></rect><rect x="200.41" y="213.75" width="3.42" height="39.04" rx="1.27" ry="1.27" transform="translate(40.86 -29.91) rotate(9.41)" fill="#c24327"></rect><rect x="217.19" y="202.72" width="3.42" height="39.04" rx="1.27" ry="1.27" transform="translate(-57.06 76.8) rotate(-17.64)" fill="#c24327"></rect><path d="M178.42,237.92c.56-.06,2.3-.13,2.95-.13a13.72,13.72,0,0,0,6.92,2.34,12.19,12.19,0,0,0,8.56-1.95l.52,4.59c.29,3.52-4.33,2.83-6.07,2.75A51.65,51.65,0,0,1,181.22,244c-1.3-.32-5.53-1-5.77-3.15S175.9,238.21,178.42,237.92Z" fill="#c24327"></path><path d="M186.4,225.27s2.69,12.43,1.43,12.38-9.41.27-9.41.27a10.11,10.11,0,0,0,8,5.61c6.1.88,10.45-5.33,10.45-5.33l-2.41-15.51" fill="#ffc4b0"></path><path d="M197.87,219.51l1.81,9.89s-2.84,2.92-12.42,2.57,0-17.48,0-17.48" fill="#a53421"></path><path d="M202.12,192.9s-10.68-8.58-17.78-9.58S173.55,190,174,195.15s17.49,8,17.49,8" fill="#edbab9"></path><path d="M168.47,245.32c.56-.06,2.3-.13,2.95-.13a13.72,13.72,0,0,0,6.92,2.34,12.19,12.19,0,0,0,8.56-1.95l.52,4.59c.29,3.52-4.33,2.83-6.07,2.75a51.65,51.65,0,0,1-10.08-1.54c-1.3-.32-5.53-1-5.77-3.15S165.95,245.61,168.47,245.32Z" fill="#c24327"></path><path d="M176.45,232.67s2.69,12.43,1.43,12.38-9.41.27-9.41.27a10.11,10.11,0,0,0,8,5.61c6.1.88,10.45-5.33,10.45-5.33l-2.41-15.51" fill="#ffc4b0"></path><path d="M201.44,193.3s-10.68-8.58-17.78-9.58-10.8,6.69-10.29,11.83,17.49,8,17.49,8" fill="#edbab9"></path><path d="M198.3,197c-1.39-1.29-20.73-7.9-27.12-4s-5.59,8.72-4.78,13.43S173,234.46,173,234.46a23.06,23.06,0,0,0,14.51.69l-1.79-18.84,24.16-13.19" fill="#c24327"></path><polygon points="195.6 194.19 189.88 198.49 165.41 185.92 181.77 174.29 204.67 187.28 195.6 194.19" fill="#007058"></polygon><path d="M220,180.18s.38-14.4-6.18-14.65-15.14,4.48-15.61,12.1-1.76,21.88-1.76,24.55,4.8,12.54,4.8,12.54" fill="#4be2c5"></path><path d="M177.48,180.42l-.12-.07a.94.94,0,0,1,.95-1.62l.23.13a1,1,0,0,1,1.4-.84c1.08.53,2.15,1.07,3.21,1.64l-.41-.5c-.62-.77.16-2.09,1.14-1.48q1.93,1.21,3.8,2.52a1,1,0,0,1,.2,1.43l.19.15a1,1,0,0,1,.27,1.29,1.06,1.06,0,0,1-.1.86c.59.43.25,1.3-.38,1.54l-.08.09,1.11.39c1.13.4.65,2.21-.5,1.81l-5.7-2a8.89,8.89,0,0,1-4-2.17.92.92,0,0,1-.15-1,6,6,0,0,1-1.15-.78A.84.84,0,0,1,177.48,180.42Z" fill="#ffc4b0"></path><path d="M200.78,184s-10.25-4.17-13.3-5.06c0,0-3.16,2.22-2.28,8.05,0,0,9.24,9.44,15,12.28" fill="#4be2c5"></path><path d="M208.76,163.48a1,1,0,0,1,.07-1.24,3.83,3.83,0,0,1,1.6-1.28,1.42,1.42,0,0,1,1.81,1,2.4,2.4,0,0,1-2.83,2.66,1,1,0,0,1-.66-1.16Z" fill="#ff666d"></path><path d="M225.92,209.81a21.67,21.67,0,0,0,1-3.07c2-8,3.36-37.84-10.07-36.62-14.74,1.33-9.75,38.24-24.7,37.1s-21.05,2.75-14.95,8.54C189.45,227.33,218.43,227.59,225.92,209.81Z" fill="#fdf2d6"></path><path d="M206.45,152.47s-2.69,11.13,1.09,13.45c2.67,1.64,7.07.58,8.57-3.77S210.41,149.72,206.45,152.47Z" fill="#ffc4b0"></path><path d="M211.92,161.39a15.07,15.07,0,0,1-5.65-8.63c-1.06-5.45,11.39-4.75,13.79.45,1.88,4.06-.06,12.45-7,12.68Z" fill="#c24327"></path><path d="M216.63,162.69c.91.63,24.34,20.3,14,28.67-8.62,7-15.26-24.53-15.5-27" fill="#c24327"></path><path d="M210.43,160.4s.69-2.18,1.86-1.12c1,.87.3,3.85-.54,3.53" fill="#ffc4b0"></path></g></g></svg>