<svg id="Layer_1" data-name="Layer 1" xmlns="http://www.w3.org/2000/svg" viewBox="0 0 400 300" width="406" height="306" data-imageid="completed-task-d" imageName="Personal data" class="illustrations_image" style="width: 244px;"><path d="M127.68,163.89s-2.49-42.85,19.17-48.78,50.61,54.57-.17,75.92Z" fill="#f4a28c"/><path d="M127.68,163.89s-2.49-42.85,19.17-48.78,50.61,54.57-.17,75.92Z" opacity="0.1"/><rect x="150.91" y="46.87" width="131.3" height="157.39" transform="translate(-12.95 25.61) rotate(-6.57)" fill="#bababa"/><rect x="149.99" y="42.73" width="127.6" height="157.39" transform="translate(-12.49 25.26) rotate(-6.57)" fill="#ccc"/><ellipse cx="200.68" cy="155.31" rx="128.31" ry="105.64" fill="#e6e6e6" opacity="0.3"/><rect x="144.89" y="39.07" width="127.6" height="157.39" transform="translate(-12.11 24.66) rotate(-6.57)" fill="#e6e6e6"/><rect x="154.42" y="55.61" width="42.83" height="49.58" transform="translate(-8.05 20.65) rotate(-6.57)" fill="#fff"/><path d="M156.41,98.88S157.72,88.11,167.65,84s24.07-4.9,31.3,10l1,8.59-42.54,4.9Z" fill="#68e1fd" class="target-color"/><polygon points="172.94 68.62 171.99 82.45 180.61 86.44 177.27 72.37 172.94 68.62" fill="#f4a28c"/><path d="M177.88,74.55a5,5,0,0,1-2.59-1.25,7.92,7.92,0,0,0,3.33,4.76Z" fill="#ce8172" opacity="0.31"/><path d="M179,67a26.33,26.33,0,0,1,1.24,6.91A2.12,2.12,0,0,1,178,75.94a4.71,4.71,0,0,1-4.37-2.62L171.61,70a3.79,3.79,0,0,1,.72-4.33C174.27,63.46,178.31,64.45,179,67Z" fill="#f4a28c"/><path d="M179.67,69.52l1.51,1.33A.67.67,0,0,1,181,72l-1.51.66Z" fill="#f4a28c"/><path d="M172.24,74.34,170.17,69s-3.25-.19-2.53-2.38,2.16-1,1.94-3.35,1.67-3.1,3.2-1.91.68-.61,2.37-1.06,2.23.27,2.41,1.57,2.51-.36,3.33,1.22S182,66.23,177.74,67,177,70.89,172.24,74.34Z" fill="#ffd200"/><path d="M175.41,71.48s-.39-1.58-1.56-1.18-.6,2.68,1.07,2.53Z" fill="#f4a28c"/><path d="M156.41,98.88s4.84,7.73,15,2.2,21.53-8.45,28.11-2l.4,3.46-42.54,4.9Z" opacity="0.08"/><rect x="204.4" y="51.84" width="31.64" height="7.36" transform="translate(-4.91 25.57) rotate(-6.57)" fill="#bababa"/><rect x="206.03" y="66.05" width="31.64" height="7.36" transform="translate(-6.52 25.85) rotate(-6.57)" fill="#bababa" opacity="0.5"/><rect x="173.36" y="113.29" width="28.15" height="7.36" transform="translate(-12.15 22.22) rotate(-6.57)" fill="#bababa" opacity="0.11"/><rect x="175.84" y="134.87" width="28.15" height="7.36" transform="translate(-14.61 22.65) rotate(-6.57)" fill="#bababa" opacity="0.11"/><rect x="227.22" y="107.08" width="28.15" height="7.36" transform="translate(-11.09 28.34) rotate(-6.57)" fill="#bababa" opacity="0.11"/><rect x="229.7" y="128.67" width="28.15" height="7.36" transform="translate(-13.54 28.77) rotate(-6.57)" fill="#bababa" opacity="0.11"/><rect x="208.31" y="79.27" width="48.31" height="19.49" transform="translate(-8.66 27.19) rotate(-6.57)" fill="#fff" opacity="0.36"/><rect x="164.69" y="152.53" width="100.69" height="28.06" transform="translate(-17.65 25.7) rotate(-6.57)" fill="#fff" opacity="0.36"/><rect x="158.84" y="114.62" width="10.13" height="10.13" transform="translate(-12.62 19.54) rotate(-6.57)" fill="#68e1fd" class="target-color"/><rect x="211.98" y="108.49" width="10.13" height="10.13" transform="translate(-11.57 25.59) rotate(-6.57)" fill="#ffd200"/><rect x="161.32" y="136.2" width="10.13" height="10.13" transform="translate(-15.07 19.97) rotate(-6.57)" fill="#24285b"/><rect x="214.47" y="130.08" width="10.13" height="10.13" transform="translate(-14.02 26.01) rotate(-6.57)" fill="#fff"/><rect x="235.9" y="166.38" width="30.33" height="10.13" transform="translate(-17.97 29.86) rotate(-6.57)" fill="#68e1fd" class="target-color"/><path d="M166,128.92s9.4,6.17,2.47,19.46.86,23.51,2.55,27.56,3.9,33.63,3.9,33.63l-15.32,1.82-7.91-30.9L155,149.35Z" opacity="0.1"/><path d="M239.3,35,239,32.77a6.45,6.45,0,0,1,5.66-7.13h0a6.43,6.43,0,0,1,7.13,5.65l2.52,21.92a4.74,4.74,0,0,1-4.17,5.26h0a4.75,4.75,0,0,1-5.26-4.17l-1.36-11.8" fill="none" stroke="#24285b" stroke-miterlimit="10" stroke-width="2"/><path d="M140.53,144.21s12-21.68,19.67-22.14c6.3-.37,9.55,11.48-.73,24.91a23.89,23.89,0,0,0-4.53,19.29c1.15,5.62,1.12,12.69-3.12,19.18-8.92,13.65-20.15,7-22.86-7.42S125.86,159.25,140.53,144.21Z" fill="#f4a28c"/><polygon points="166.15 192.9 175.24 270.11 120.98 274.34 122.81 194.9 166.15 192.9" fill="#24285b"/><polygon points="126.16 194.75 126.16 183.55 163.9 183.55 163.9 192.9 126.16 194.75" fill="#68e1fd" class="target-color"/><polygon points="126.16 194.75 126.16 183.55 163.9 183.55 163.9 192.9 126.16 194.75" fill="#68e1fd" class="target-color" /><polygon points="148.87 183.55 151.26 271.98 175.24 270.11 166.15 192.9 163.9 192.9 163.9 183.55 148.87 183.55" opacity="0.1"/></svg>