<svg id="Layer_1" data-name="Layer 1" xmlns="http://www.w3.org/2000/svg" viewBox="0 0 400 300" width="406" height="306" class="illustration styles_illustrationTablet__1DWOa"><path d="M232.66,82.36s31.54,15.79,45.27,51.07l-38.66,2.18Z" fill="#68e1fd"></path><path d="M239.27,135.61l-6.61-53.25s31.54,15.79,45.27,51.07" fill="#fff" opacity="0.44"></path><ellipse cx="200.41" cy="255.33" rx="117.96" ry="13.15" fill="#e6e6e6" opacity="0.3"></ellipse><rect x="122.82" y="172.6" width="15.91" height="79.33" fill="#c1c1c1"></rect><rect x="260.66" y="172.6" width="15.91" height="79.33" fill="#c1c1c1"></rect><rect x="99.05" y="141" width="199.02" height="51.62" rx="8.6" fill="#e6e6e6"></rect><path d="M149.87,192.62h112s-8.4-10.29-6.54-22.81,16.07-23.53,16.07-23.53L245.58,140l-42.41,4.94L164,142.38Z" opacity="0.09"></path><path d="M196.46,74.66s-46.86,5.51-42.66,33.11,28.58,76.62,28.58,76.62l51.28-2.61s12.77-58.74,14-74S229,70.29,196.46,74.66Z" fill="#68e1fd"></path><rect x="99.05" y="205.44" width="199.02" height="16.31" rx="4.68" fill="#e6e6e6"></rect><polygon points="208.02 51.62 196.47 74.66 208.38 87.69 212.75 61.16 208.02 51.62" fill="#f4a28c"></polygon><path d="M212.24,65.34a9.33,9.33,0,0,1-3.56-4s-1.23,4.56,2.3,10.56Z" fill="#ce8172" opacity="0.31"></path><path d="M219.58,53.09s-.66,7.84-2.84,12.75a4,4,0,0,1-5.24,2c-2.46-1.13-5.45-3.38-5.61-7.63L204.73,53a7.08,7.08,0,0,1,4.35-6.91C214,43.73,220.22,48.33,219.58,53.09Z" fill="#f4a28c"></path><path d="M218.91,58l1.65,3.36a1.27,1.27,0,0,1-1.11,1.82l-3.06,0Z" fill="#f4a28c"></path><path d="M202.7,60.92,203,50.23s-5.44-2.67-2.62-5.9,4.38-.08,5.72-4.35,5.09-4.11,6.86-1,1.6-.57,4.82-.13,3.63,2.07,3,4.43,4.57,1.17,4.84,4.47-.4,6.23-8.22,4.46S213.25,58.4,202.7,60.92Z" fill="#ffd200"></path><path d="M210.2,58.31s.45-3-1.83-3.15-3,4.17,0,5.09Z" fill="#f4a28c"></path><path d="M175.66,95.51s14.29,12,12.61,40.1,24,47.26,24,47.26l-29.86,1.52s-10.27-21.18-14.8-33S175.66,95.51,175.66,95.51Z" opacity="0.09"></path><path d="M271.48,147.93c9.41-2.62,10.14-16,1-19.45l-.24-.08c-7.92-2.84-41.76,3.45-41.76,3.45s-14.67-3-14,3.1,7.12,8.85,15.57,3.76C232,138.71,252.66,153.16,271.48,147.93Z" fill="#f4a28c"></path><rect x="230.45" y="131.16" width="4.42" height="8.9" transform="matrix(1, 0.09, -0.09, 1, 13.6, -21.02)" fill="#24285b"></rect><path d="M148.76,121.7l-15.13,78.39s-10.09-.23-9.53,5.35h20.18s31.66-65,31.38-85.49S154,94.41,148.76,121.7Z" fill="#f4a28c"></path><circle cx="232.85" cy="132.4" r="2.94" fill="#fff"></circle><path d="M153.47,97.74c-5.08,7.72-10.8,20.15-12.28,38.18l31.67,9s9.74-25,6.66-41.93C177.22,90.35,160.51,87,153.47,97.74Z" fill="#68e1fd"></path><path d="M153.47,97.74c-5.08,7.72-10.8,20.15-12.28,38.18l31.67,9s9.74-25,6.66-41.93C177.22,90.35,160.51,87,153.47,97.74Z" fill="#fff" opacity="0.44"></path><path d="M182.38,184.39l-14,15.12a20,20,0,0,0-4.53,19.23l8.55,29.18,7.72.27-1.88-28.31a11.29,11.29,0,0,1,8.55-11.69L192,206.9a53.67,53.67,0,0,1,13-1.58c11.57,0,33.87,1,39.87,8.28,8.22,9.93,22,36.83,22,36.83l7.48-4.48s-9.72-52.5-40.73-64.17Z" fill="#24285b"></path><path d="M268.61,249.41l2.46,5.18,9.42-2.69a2.11,2.11,0,0,0,.11-4,15,15,0,0,0-8.12-.79Z" fill="#68e1fd"></path><path d="M173.7,248a18.27,18.27,0,0,0-4.42,1.22,2.31,2.31,0,0,0,.92,4.43h9.52L179,248Z" fill="#68e1fd"></path><ellipse cx="286.16" cy="63.03" rx="25.02" ry="23.53" fill="#24285b"></ellipse><polygon points="272.39 67.73 257.89 88.14 278.41 74.8 272.39 67.73" fill="#24285b"></polygon><circle cx="286.64" cy="63.03" r="11.69" fill="#fff"></circle><polyline points="286.64 56.9 286.64 63.85 291.76 63.44" fill="none" stroke="#24285b" stroke-linecap="round" stroke-linejoin="round"></polyline></svg>