<svg id="Layer_1" data-name="Layer 1" xmlns="http://www.w3.org/2000/svg" viewBox="0 0 400 300" width="406" height="306" class="illustration styles_illustrationTablet__1DWOa"><title>_</title><path d="M102.44,59.62c-33.95,8.11-60.77,27-65.07,61.71-3.62,29.24,4.74,78.94,62.35,84.23,116.46,10.69,240.53,21.4,257.31-29,11.38-34.17,15.13-95.31-47.72-114.1C266.68,49.7,175.21,42.25,102.44,59.62Z" fill="#e6e6e6" opacity="0.3"></path><ellipse cx="203.38" cy="237.08" rx="157.6" ry="13.5" fill="#e6e6e6" opacity="0.45"></ellipse><path d="M181,163.91a3.68,3.68,0,0,0,2.66-.23,5,5,0,0,0,2.1-1.56,3.41,3.41,0,0,0,.69-2.49,1.32,1.32,0,0,0-.56-1c-.26-.15-.6-.16-.85-.32a2.61,2.61,0,0,1-.61-.78,2.62,2.62,0,0,0-2-1,5.14,5.14,0,0,0-2.27.5,3.67,3.67,0,0,0-2.26,2.16,3,3,0,0,0,1.3,3,9,9,0,0,0,3.27,1.24" fill="#24285b"></path><path d="M161.09,156.66a3,3,0,0,1,2.74-.91,3,3,0,0,0,1,.12,3.15,3.15,0,0,0,.76-.32c1.3-.6,2.82-.06,4.15.49a3.43,3.43,0,0,0,1.41.36,3.85,3.85,0,0,0,1.2-.3,15.93,15.93,0,0,1,2.8-.7,1.77,1.77,0,0,1,1.36.19,5.56,5.56,0,0,1,.52.56,2.47,2.47,0,0,0,1.34.55,5.07,5.07,0,0,1,2.82,1c.26.26.45.58.7.83s.5.41.72.65a3.59,3.59,0,0,1,.51,2.72,1.63,1.63,0,0,1-.21.78,1.58,1.58,0,0,1-1.1.5l-5.48.88c-3.64.58-7.28,1.17-10.95,1.61a22.43,22.43,0,0,1-5.61.18c-2-.26-2.54-1.11-2.71-3C156.79,159.94,159.41,158.48,161.09,156.66Z" fill="#e6e6e6"></path><rect x="155.91" y="159.66" width="32.27" height="13.79" fill="#ffd200"></rect><path d="M129,158l2.62-6.63,5.79-14.67,5.88-14.93c1.52-3.83,3.06-7.49,4.93-11.17a14.18,14.18,0,0,1,2.16-3.41,4.77,4.77,0,0,1,3.56-1.66.8.8,0,0,1,.49.13.85.85,0,0,1,.24.37,7.77,7.77,0,0,1,.13,4.93,27.22,27.22,0,0,1-1.32,3.56,9.41,9.41,0,0,0-.63,2.84c0,.12-.05.34-.07.48l-.51,3.41-2,13.21L148,149.7q-.71,4.77-1.42,9.52c0,.14,1-5.11-.08.59S135.43,175.57,129,158Z" fill="#f4a28c"></path><path d="M184.94,195s8.77,8.26-2.59,7.93S175.17,193.76,184.94,195Z" fill="#68e1fd"></path><path d="M119.47,102.08s17,12.71,9,17.61-14.19-18.79-14.19-18.79Z" fill="#24285b"></path><path d="M119.39,91.25s1.28,5.38.89,9.15a2.77,2.77,0,0,1-3.07,2.47A6.15,6.15,0,0,1,111.79,99l-2.34-4.55a5,5,0,0,1,1.4-5.57C113.61,86.21,118.78,87.92,119.39,91.25Z" fill="#f4a28c"></path><polygon points="109.91 97.27 111.61 115.33 121.5 113.68 116.29 101.2 109.91 97.27" fill="#f4a28c"></polygon><path d="M114.26,96.79s-.35-2.1-1.91-1.71-1.07,3.44,1.12,3.41Z" fill="#f4a28c"></path><path d="M120,94.68l1.84,1.89a.89.89,0,0,1-.35,1.46l-2,.7Z" fill="#f4a28c"></path><path d="M152.24,180.22s33.83-8.58,38.24,6.37-47.3,13.48-47.3,13.48l-11.77-9.31Z" fill="#24285b"></path><path d="M117.36,112.78s19.69,2,33.41,17.69c8.15,9.31,5.07,17.07,1.22,21.84A15.67,15.67,0,0,0,149.42,167l4.08,12.71s-21.78,14-35.54,12.56S60.9,114.94,117.36,112.78Z" fill="#68e1fd"></path><path d="M90.54,128.72s-2.44,7.47-1.11,14.69,8.14,55.17,53.29,42.22l10.78-6L142.06,170l-21.89-22.9-9.58-18.39Z" opacity="0.08"></path><path d="M106,161.12c-9.68-29.32-52.89-24.52-56.59,6.14-3.81,31.65.51,62.61,51.46,68.28,81,9,93.78-14.89,82.35-34.17s-68.3-9.15-76.79-38.88C106.3,162,106.16,161.56,106,161.12Z" fill="#e6e6e6"></path><path d="M172.83,177.64s11.3,2.74,12.11-4.45l-12.11-1.31Z" fill="#f4a28c"></path><path d="M104.16,129.54c-.12-6.79,7.48-11.16,13.14-7.42,3.88,2.56,7.7,7.83,10,18.19,4.5,20.24,15.7,29,45.53,31.57v5.76S105.37,194.79,104.16,129.54Z" fill="#f4a28c"></path><path d="M118.27,92.56h0a4,4,0,0,0,1-6.85,8.39,8.39,0,0,0-2-1.15c-4.71-2-16-.59-15.25,10.12s-17.13,35.06-1,41.67,29.58-2.12,29.58-10-15.32-9.73-16.32-16.59c-.41-2.8-.8-5.76-1.13-8.29A8.56,8.56,0,0,1,118.27,92.56Z" fill="#24285b"></path><path d="M79,194.44c-5.7-5.2-14.63.5-12.17,7.81,3.49,10.34,11.51,20.48,29.13,23.48,39.59,6.74,35.73-7.91,33.17-14.3C127,206.21,100.82,214.35,79,194.44Z" fill="#fff" opacity="0.45"></path><path d="M155.45,96.55s-1.21-4.84,2.77-6.72l.52,1.42s-2.18.08-2.52,5.42Z" fill="#68e1fd"></path><path d="M155.45,96.55s-1.21-4.84,2.77-6.72l.52,1.42s-2.18.08-2.52,5.42Z" opacity="0.08"></path><path d="M152.23,109.79h0a4.42,4.42,0,0,1,2.84.35l.31.15a2.73,2.73,0,0,0,2.77-.21,12.37,12.37,0,0,0,5.5-8.79c.48-5.18-2.63-6.23-5.37-5.58a5.15,5.15,0,0,1-3.89-.63,4.59,4.59,0,0,0-4.25-.61c-2.77,1.22-4.25,9.87-.14,14.58A2.3,2.3,0,0,0,152.23,109.79Z" fill="#ffd200"></path><path d="M162,99.32a11.34,11.34,0,0,1-1.58,6.16.65.65,0,0,1-1.2-.34V99.37a1.38,1.38,0,0,1,1.83-1.32l0,0A1.36,1.36,0,0,1,162,99.32Z" fill="#fff" opacity="0.43"></path><path d="M155.85,92.13s.13-5.11-5.43-4C150.42,88.08,150.48,93.26,155.85,92.13Z" fill="#68e1fd"></path><path d="M155.85,92.13s.13-5.11-5.43-4C150.42,88.08,150.48,93.26,155.85,92.13Z" fill="#fff" opacity="0.46"></path><path d="M261.77,164.84c-4.63,5.48-10.59,10.08-17.54,11.85a4,4,0,0,0-2.52,1.29,3.4,3.4,0,0,0,.08,3.07,20.69,20.69,0,0,0,22,12.6,27.87,27.87,0,0,0,10.39-4.3,23.18,23.18,0,0,0,7.46-7.08c2.24-3.65,2.87-8.05,3.11-12.32a82.75,82.75,0,0,0-.15-11.57c-.36-4.24-3.44-14.63-9.92-12.57-2.67.84-4.44,6.5-5.77,8.75A73.32,73.32,0,0,1,261.77,164.84Z" fill="#68e1fd"></path><path d="M261.77,164.84c-4.63,5.48-10.59,10.08-17.54,11.85a4,4,0,0,0-2.52,1.29,3.4,3.4,0,0,0,.08,3.07,20.69,20.69,0,0,0,22,12.6,27.87,27.87,0,0,0,10.39-4.3,23.18,23.18,0,0,0,7.46-7.08c2.24-3.65,2.87-8.05,3.11-12.32a82.75,82.75,0,0,0-.15-11.57c-.36-4.24-3.44-14.63-9.92-12.57-2.67.84-4.44,6.5-5.77,8.75A73.32,73.32,0,0,1,261.77,164.84Z" opacity="0.08"></path><path d="M254.07,171.42a3.7,3.7,0,0,0,2.67-.23,5,5,0,0,0,2.1-1.56,3.34,3.34,0,0,0,.68-2.49,1.34,1.34,0,0,0-.56-1c-.26-.15-.59-.16-.85-.32a2.58,2.58,0,0,1-.6-.78,2.6,2.6,0,0,0-2-1,5.07,5.07,0,0,0-2.26.5A3.65,3.65,0,0,0,251,166.7a3,3,0,0,0,1.31,3,8.83,8.83,0,0,0,3.26,1.24" fill="#24285b"></path><path d="M234.19,164.17a3.05,3.05,0,0,1,2.74-.91,3.06,3.06,0,0,0,1,.12,3.49,3.49,0,0,0,.75-.31c1.31-.6,2.83-.06,4.16.48a3.52,3.52,0,0,0,1.41.37,3.88,3.88,0,0,0,1.19-.31,15.07,15.07,0,0,1,2.8-.69,1.76,1.76,0,0,1,1.36.18,4.6,4.6,0,0,1,.52.56,2.47,2.47,0,0,0,1.35.55,5.09,5.09,0,0,1,2.81,1c.26.26.45.58.7.84s.51.4.72.64a3.6,3.6,0,0,1,.51,2.73,1.55,1.55,0,0,1-.2.77,1.6,1.6,0,0,1-1.1.5l-5.48.88c-3.65.59-7.29,1.17-10.95,1.62a22.5,22.5,0,0,1-5.62.17c-2-.26-2.54-1.11-2.7-3C229.9,167.46,232.51,166,234.19,164.17Z" fill="#e6e6e6"></path><rect x="229.01" y="167.18" width="32.27" height="13.79" fill="#ffd200"></rect><path d="M227.72,128.56H218.2a1.19,1.19,0,0,0-1.19,1.25l.78,15.72a2.13,2.13,0,0,0,2.13,2h6.23a2.13,2.13,0,0,0,2.13-2.05l.63-15.71A1.2,1.2,0,0,0,227.72,128.56Z" fill="#68e1fd"></path><path d="M225,143.34l-.7-.05,1.24-17.94a.36.36,0,0,1,.13-.25.4.4,0,0,1,.28-.07l5.77,1-.11.69-5.4-.91Z" fill="#24285b"></path><path d="M227.39,134.3h-8.78L219,145a1.33,1.33,0,0,0,1.33,1.28h5.27a1.33,1.33,0,0,0,1.33-1.27Z" fill="#fff" opacity="0.44"></path><path d="M283.45,90s-.15,6.32,1.17,10.44a3.18,3.18,0,0,0,4,2,7,7,0,0,0,5.14-5.62l1.54-5.63a5.68,5.68,0,0,0-2.88-5.9C288.72,83,283.35,86.12,283.45,90Z" fill="#f4a28c"></path><polygon points="295.04 92.23 299.59 112.46 288.26 114.17 289.5 98.76 295.04 92.23" fill="#f4a28c"></polygon><path d="M285,90.14a25.49,25.49,0,0,0,5.79-.81,5.25,5.25,0,0,0,.37,5.77,4.28,4.28,0,0,0,5.28,1.39l-.61-8.11a6.46,6.46,0,0,0-3.62-5.53,24.87,24.87,0,0,0-2.8-1.15c-2.39-.79-5.71,1-7.91-.46a1.53,1.53,0,0,0-2.35,1.15c-.21,2.49.48,6.35,3.9,7.49A6.12,6.12,0,0,0,285,90.14Z" fill="#24285b"></path><path d="M290.5,95s-.11-2.44,1.73-2.36,2,3.58-.45,4.07Z" fill="#f4a28c"></path><path d="M283.56,94,282,96.51a1,1,0,0,0,.74,1.55l2.44.3Z" fill="#f4a28c"></path><path d="M289.09,102.12a7.48,7.48,0,0,0,3.55-2.43s.08,3.79-3.84,7.79Z" fill="#ce8172" opacity="0.31"></path><path d="M305.09,192.43l-30.62-2s-.44-3-1.11-7.88c-.48-3.51-1.09-8-1.74-12.9-1.07-8.13-2.25-17.56-3.19-26.22-2.31-21.17,19.83-29.28,19.83-29.28l11.33-1.71C351.07,120.44,305.09,192.43,305.09,192.43Z" fill="#68e1fd"></path><path d="M302.48,161.52c-14.27,17.37-18.61,27.91-18.61,27.91l-10.51-6.86c-.48-3.51-1.09-8-1.74-12.9L280,157.3l24.5-27.5.77.18S316.75,144.15,302.48,161.52Z" opacity="0.08"></path><path d="M304.26,125.09a10.45,10.45,0,0,0-12-7.44c-5.82,1.12-12.76,5-15.2,16.83a89.75,89.75,0,0,1-10.25,27.18,6.48,6.48,0,0,1-9.84,1.61l-24.36-21-5.46,6.41,28.48,29.75a11.77,11.77,0,0,0,14.8,1.81C284.72,171.19,311.51,150.42,304.26,125.09Z" fill="#68e1fd"></path><path d="M304.26,125.09a10.45,10.45,0,0,0-12-7.44c-5.82,1.12-12.76,5-15.2,16.83a89.75,89.75,0,0,1-10.25,27.18,6.48,6.48,0,0,1-9.84,1.61l-24.36-21-5.46,6.41,28.48,29.75a11.77,11.77,0,0,0,14.8,1.81C284.72,171.19,311.51,150.42,304.26,125.09Z" fill="#fff" opacity="0.46"></path><path d="M232.6,142.25s-7.47-7.88-11.35-2.47,5.89,8.88,5.89,8.88Z" fill="#f4a28c"></path><path d="M234.94,195s-8.77,8.26,2.6,7.93S244.72,193.76,234.94,195Z" fill="#68e1fd"></path><path d="M271.43,182.14s-37.61-10.5-42,4.45,47.3,13.48,47.3,13.48l11.76-9.31Z" fill="#24285b"></path><path d="M300.74,161.12c9.68-29.32,52.9-24.52,56.59,6.14,3.81,31.65-.51,62.61-51.46,68.28-81,9-93.78-14.89-82.35-34.17s68.3-9.15,76.8-38.88C300.45,162,300.59,161.56,300.74,161.12Z" fill="#e6e6e6"></path><path d="M327.76,194.44c5.7-5.2,14.63.5,12.17,7.81-3.48,10.34-11.51,20.48-29.13,23.48-39.58,6.74-35.72-7.91-33.17-14.3C279.71,206.21,305.93,214.35,327.76,194.44Z" fill="#fff" opacity="0.45"></path><path d="M76.51,224.66s-9.8-2.68-11.93-11.8c0,0,15.18-3.06,15.61,12.61Z" fill="#68e1fd" opacity="0.58"></path><path d="M77.71,223.69s-6.85-10.83-.82-20.94c0,0,11.54,7.33,6.41,21Z" fill="#68e1fd" opacity="0.73"></path><path d="M79.47,223.7S83.09,212.27,94,210.1c0,0,2,7.42-7.08,13.63Z" fill="#68e1fd"></path><polygon points="72.37 223.44 74.35 237.03 86.86 237.08 88.71 223.51 72.37 223.44" fill="#24285b"></polygon></svg>